<?xml version="1.0" encoding="UTF-8"?>
<svg id="Layer_1" data-name="Layer 1" xmlns="http://www.w3.org/2000/svg" viewBox="0 0 671 630">
  <defs>
    <style>
      .cls-1 {
        fill: #231f20;
      }

      .cls-2 {
        fill: #fff;
      }
    </style>
  </defs>
  <circle class="cls-2" cx="335.5" cy="315" r="294.34"/>
  <g>
    <g>
      <path d="M388.08,205.39c.09.07.18.13.26.21-.08-.09-.17-.15-.26-.21Z"/>
      <path d="M385.94,205.06c.17-.03.34-.05.5-.06-.16,0-.33.04-.5.06Z"/>
      <path d="M357.19,191.38s-.09.03-.14.05c.05-.02.09-.03.14-.05Z"/>
      <path d="M355.28,189.83s-.07-.03-.1-.04c.03.01.06.02.1.04Z"/>
      <path d="M385.77,205.4c-.02-.06-.03-.12-.05-.19h0c.02.06.04.12.05.19Z"/>
      <path d="M355.64,190.02c-.07-.04-.13-.07-.2-.11.07.04.13.07.2.11Z"/>
      <path d="M313.96,205.55h0c1.11-.5,2.17-1.04,3.17-1.67-1,.62-2.06,1.17-3.17,1.67Z"/>
      <path d="M385.71,205.21h0s.04,0,.06-.02c.01-.04.03-.08.05-.11,0,0,0,0,0,0h0s-.03.07-.05.11l-.09-.09.09.09s-.03.02-.05.02Z"/>
      <path d="M309.06,177.3l.1-.07c-2.51.93-4.99,1.95-7.53,2.76,2.54-.81,5.02-1.83,7.52-2.75.01,0-.09.06-.09.06Z"/>
      <path d="M387.96,205.3c-.08-.05-.17-.08-.26-.12.09.04.18.07.26.12Z"/>
      <path d="M387.52,205.1c-.08-.03-.18-.04-.27-.05.09.02.19.03.27.05Z"/>
      <path d="M389.02,207.26c-.11-.73-.33-1.25-.65-1.61.32.36.54.88.65,1.61Z"/>
      <path d="M387.01,205c-.1,0-.22,0-.32,0,.11,0,.22,0,.32,0Z"/>
      <path d="M129.58,347.68c-.22-2.42-.3-4.87-.43-7.3h0c.13,2.43.21,4.87.43,7.3Z"/>
      <path d="M385.9,206.18c0,.12-.02.24-.03.36.02-.12.03-.23.03-.36Z"/>
      <path d="M384.58,208.66c-.28-1.02-.46-1.66-.47-2.1.01.44.19,1.08.47,2.1Z"/>
      <path d="M385.86,206.63c-.14.72-.63,1.36-1.28,2.03.66-.67,1.14-1.31,1.28-2.03Z"/>
      <path d="M385.86,205.71c.02.09.02.17.02.25,0-.08,0-.17-.02-.25Z"/>
      <path d="M308.01,206.09c-.74-.14-1.48-.37-2.21-.71.73.34,1.47.56,2.21.71Z"/>
      <path d="M323.33,197.26c-.17.34-.37.64-.57.96.19-.32.39-.62.57-.96Z"/>
      <path d="M308.93,206.21c-.29-.03-.58-.05-.87-.11.29.05.58.08.87.11Z"/>
      <path d="M313.87,205.59s0,0,0,0c-2.53-1.15-5.18-.43-7.77-.6,2.58.18,5.22-.53,7.76.61Z"/>
      <path d="M304.69,204.78c.38.09.76.15,1.14.18-.38-.03-.76-.09-1.14-.18Z"/>
      <path d="M386.91,202.66c.14-.26.28-.51.44-.75-.16.24-.31.49-.44.75Z"/>
      <path d="M311.74,206.1c-.07.01-.14.03-.21.04.07-.01.14-.03.21-.04Z"/>
      <path d="M356.04,191.16c.17.29.42.44.78.36-.36.08-.6-.07-.78-.36Z"/>
      <path d="M310.78,206.21c-.14.01-.27.03-.41.04.14,0,.27-.03.41-.04Z"/>
      <path d="M309.83,206.25c-.21,0-.41,0-.62,0,.21.01.41,0,.62,0Z"/>
      <path d="M355.74,190.04l.05.05s-.05-.05-.07-.07c0,.01,0,.03,0,.04,0,0,0,0,.01,0,0,0,0-.02,0-.03Z"/>
      <path d="M314.69,203.16c.17.39-.14,1.08-.78,2.42.02,0,.03-.02.05-.03.61-1.32.91-2,.73-2.39Z"/>
      <path d="M355.74,190.07s.03.02.05.03c-.02,0-.04-.02-.05-.03h0Z"/>
      <path d="M354.89,189.75s.11-.02.18,0c-.07-.02-.13-.02-.18,0Z"/>
      <path d="M322.33,198.96c-.27.39-.56.75-.85,1.11.29-.36.58-.72.85-1.11Z"/>
      <path d="M321.19,200.44c-.33.39-.69.74-1.05,1.09.36-.35.71-.7,1.05-1.09Z"/>
      <path d="M318.59,202.88c-.47.35-.95.69-1.46,1,.5-.31.99-.64,1.46-1Z"/>
      <path d="M319.94,201.74c-.41.38-.84.74-1.28,1.07.44-.34.87-.69,1.28-1.07Z"/>
      <path d="M475.9,179.41c-.69.2-1.38.39-2.06.59h0c.69-.2,1.38-.39,2.06-.59Z"/>
      <path d="M468.35,182.15c.94-.82,1.92-1.57,3.1-1.92-1.18.35-2.17,1.1-3.1,1.92Z"/>
      <path d="M447.83,146.02c-.09-.21-.13-.45-.27-.61.14.16.18.41.27.61,0,0,0,0,0,0Z"/>
      <path d="M472.42,180.05c.26-.02.53,0,.81.01-.28-.02-.56-.03-.81-.01Z"/>
      <path d="M471.48,180.23c.26-.07.53-.12.81-.15-.28.03-.55.08-.81.15Z"/>
      <path d="M473.81,180.01h2.17c-.71,0-1.43,0-2.15,0,0,0-.02,0-.02,0Z"/>
      <path d="M473.53,180.01h0l.07.06s-.06-.05-.07-.06Z"/>
      <path d="M471.35,182.41c.84-.6,1.42-1.56,2.13-2.35,0,0-.02,0-.03,0-.69.8-1.27,1.75-2.1,2.35Z"/>
      <path d="M473.48,180.06s.08,0,.12,0c-.04,0-.08,0-.12,0h0Z"/>
      <path d="M313.88,205.59s0,0,0,0h0s0,0,0,0h0Z"/>
      <path d="M582.72,272.83c-2.29-5.35-5.36-9.09-11.37-10.01-1.98-.3-4.35-.85-5.46-2.53-3.54-5.38-5.61-11.35-6.19-17.84-.24-2.65-.75-5.35-1.63-7.85-.84-2.37-2.32-4.52-3.54-6.76-1.68-3.09-4.11-4.54-7.74-3.74-1.3.29-2.8-.15-4.02.27-2.38.82-3.57-.4-4.65-2.12-2.75-4.36-5.89-8.4-9.86-11.73-2.31-1.94-4.73-3.76-7.87-4.07-3.13-.31-3.15-.25-3.87-3.13-.16-.65-.09-1.34-.2-2-.46-2.92-1.18-5.88-3.37-7.93-3.86-3.62-8.72-5.85-13.42-8.06-4.75-2.24-9.58-4.33-14.06-7.04-4.19-2.53-8.48-1.83-12.69-.91-3.54.77-3.47,1.12-4.96-2.2-.28-.61-.45-1.32-.85-1.83-1.54-1.95-1.05-3.82-.17-5.9,1.56-3.67-.64-9.67-4.23-11.34-2.95-1.37-6-2.36-9.41-2.34-4.42.04-8.65.82-12.85,2.09-5.66,1.71-10.25,4.91-13.51,9.86-.92,1.39-1.23,3.18-2.17,4.54-2.33,3.38-3,7.17-2.1,10.95,1.27,5.35,1.76,7.04,7.13,7.96,1.15.2,2,.58,2.52,1.85,1.84,4.56,3.89,9.04,5.78,13.59,1.46,3.52,2.78,7.1,4.19,10.64.42,1.05.94,2.06,1.28,2.8-1.95.76-3.61,1.15-4.99,1.99-2.39,1.45-4.66,3.11-6.9,4.79-1.47,1.1-2.23,2.5-2.27,4.54-.07,3.95.43,7.79.96,11.69.73,5.47,3.05,9.91,6.86,13.78,2.97,3.02,5.8,6.19,8.63,9.33.59.66,1.13,1.46,1.41,2.28.92,2.71,1.93,5.29,4.84,6.54.29.12.55.75.49,1.09-.05.31-.56.77-.86.76-4.44-.06-8.04,3.61-12.65,2.79-.36-.06-.81.34-1.21.53-1.12.51-2.2,1.16-3.37,1.51-1.58.48-3.24.94-4.86.97-.45,0-.93-1.54-1.41-2.36-.11-.18-.32-.34-.52-.42-2.21-.91-4.04-2.81-6.84-2.12-.93.22-2.38-.1-3.07-.73-4.37-4.04-10.5-2.83-15.35-5.33-2.15,1.23-3.35-.66-4.03-1.82-1.62-2.78-3.96-3.93-6.9-4.65-2.94-.72-2.99-1.06-2.69-4.2,1.44.4,2.88.8,4.72,1.31-1.33-2.53-2.49-4.48-3.41-6.54-.94-2.1-2.77-3.91-2.51-6.67,3.76,2.31,7.55,4.13,9.89,7.8.23.37.56.76.94.95.53.27,1.4.67,1.69.45.41-.31.62-1.17.55-1.75-.22-1.88-.8-3.74-.86-5.62-.07-2.3.24-4.61.4-7.18,2.26,1.62,3.83-.58,5.76-1.28,1.89-.69,2.13-1.63.61-2.83-4.24-3.36-3.63-7.7-2.99-12.21.41.12.66.13.82.25,1.02.75,1.78,2.68,3.2,1.65.68-.49.37-2.41.4-3.69.01-.54-.25-1.09-.42-1.63-.82-2.56-1.73-5.09-2.44-7.68-.2-.73-.1-2.11.33-2.35,2.08-1.14,1.73-2.75,1.05-4.36-1.26-2.97-2.59-5.92-4.04-8.8-.99-1.96-.84-3.28.67-3.99,1.59-.75,3.06-1.76,4.69-2.38,3.61-1.37,3.41-4.6,3.85-7.51.14-.91-.48-1.54-1.46-1.37-2.96.52-5.2-.7-7.37-2.92,1.55-.53,1.91-1.4,1.25-2.8-1.18-2.51-1.93-5.26-3.38-7.58-1.26-2.03-2.65-4.29-5.22-5.02-1.83-.52-1.56-1.78-1.13-2.92.34-.91,1.1-1.67,1.71-2.48.99-1.32,1.08-2.58.09-3.99-.37-.52-.66-1.43-.46-1.97,1.22-3.19-.37-5.42-2.36-7.54-.85-.91-1.58-.71-2.04.42-.56,1.35-1.13,2.7-1.63,4.07-1.1,2.96-2.98,5.07-5.97,6.3-1.25.51-1.88.68-2.77-.55-2.14-2.93-4.83-5.52-6.66-8.62-2.62-4.44-5.91-8.05-10.34-10.62-4.34-2.52-8.56-5.3-13.08-7.43-5.65-2.66-11.67-3.68-17.99-2.62-2.49.42-5.09.2-7.63.29-.44.02-.89.12-1.31.26-4.83,1.7-9.85,2.59-14.59,4.86-4.13,1.99-8.14,3.87-11.86,6.63-5.37,3.99-10.18,8.32-13.65,14.15-2.62,4.39-4.85,8.78-4.94,14.03-.04,1.79-.48,1.96-2.07,1.19-2.5-1.22-4.47-2.94-5.59-5.58-.19-.47-.95-.82-1.51-.95-.17-.04-.78.78-.81,1.23-.1,1.7-.04,3.41-.04,5.35-.54-.19-1.29-.24-1.44-.55-1.74-3.78-5.35-3.04-8.42-3.43-.66-.08-1.82.61-2.05,1.21-.22.56.35,1.6.85,2.21.84,1.03,1.85,1.92,2.85,2.8.92.81,1.93,1.52,2.9,2.28.43.34.87.67,1.91,1.47-1.8,0-2.8.05-3.79-.01-1.97-.13-3.94-.43-5.91-.47-1.44-.03-2.31.82-2.33,2.32-.02,1.48.6,2.32,2.24,2.25.74-.03,1.74-.04,2.19.39,1.64,1.55,3.1,3.29,4.66,4.99-.3.19-.56.48-.86.53-2.65.47-5.17,1.12-7.27,3.04-.59.55-2.02.78-2.77.46-3.67-1.57-7.71-2.03-11.25-4.05-3.66-2.09-7.7-3.53-11.13-7,5.34-.28,6.78-3.75,7.49-7.86.62-3.57-.1-6.8-1.99-9.92-2.27-3.75-4.42-7.43-8.61-9.52-2.97-1.48-5.54-3.72-8.45-5.35-2.13-1.19-4.44-2.5-6.78-2.75-6.76-.74-13.46-.15-19.74,2.78-2.13.99-4.38,1.99-6.13,3.49-3.37,2.88-5.4,6.71-6.57,11-.39,1.42-.4,2.64.95,3.6.54.39.91,1.02,1.47,1.37.87.55.82,1.1.48,1.98-1.28,3.31-2.42,6.68-3.68,9.99-.21.54-.76.98-1.22,1.38-2.38,2.06-5.56,2.08-8.35,2.83-5,1.36-9.97,3.03-15.26,3.36-2.02.13-4.12.6-6.14.95-4.94.84-10.07.65-14.85,2.46-4.67,1.76-9.11,3.63-10.74,9.1-.95,3.17-2.97,5.92-3.83,9.22-.56,2.15-1.82,4.46-4.37,5.1-3.2.81-5.76,2.52-7.78,5.04-1.88,2.36-3.64,4.82-5.43,7.25-1.72,2.35-3.64,4.68-4.13,7.61-.53,3.2-.93,6.48-.82,9.71.17,5.16-1.28,9.66-3.83,14.08-1.52,2.65-2.61,5.71-3.13,8.72-.69,4.02-1.48,8.15-.17,12.26.15.47-.21,1.08-.21,1.63,0,4.3-.34,8.64.18,12.88.34,2.78,1.96,5.4,2.94,8.11,1.29,3.62,3.35,6.77,5.5,9.93,1.73,2.55,3.89,4.54,6.11,6.59,2.85,2.64,6.58,3.41,9.92,4.74,3.42,1.36,4.96,4.03,6.96,6.45,1.82,2.2.22,4.43-.56,6.58-1.84,5.06-3.66,10.11-3.07,15.67.67,6.42,1.75,12.5,8.89,15.07,2.87,3.15,7.01,3.2,10.7,4.22,1.98.56,4.38.76,6.28.16,3.49-1.1,6.86-2.73,10.05-4.54,1.35-.77,2.07-1.08,3.02.17,2.59,3.43,6.66,4.85,10.17,6.8,3.32,1.85,7.44,3.01,11.23,3.07,4.57.07,7.99,1.64,11.61,4.11,3.67,2.5,8.04,3.93,11.95,6.12,3.08,1.72,6.45,2.05,9.68,1.96,4.61-.13,9.26-.87,13.78-1.87,2.45-.54,4.73-2.03,6.94-3.34.73-.44,1.27-1.62,1.43-2.53,1.45-8.42,4.85-16.23,7.72-24.17,1.71-4.74,4.83-8.98,7.4-13.4,2.27-3.91,4.65-7.75,6.98-11.62-6.55,5.11-11.44,11.5-15.24,19.38-.36-1.7-.59-2.9-.87-4.08-.37-1.5-2.06-2.53-3.61-2.02-1.75.58-.67,1.82-.41,2.8.23.86.57,1.7.91,2.53,1.33,3.27.34,5.88-1.91,8.08-1.22-1.82-2-3.92-3.52-5.01-1.81-1.3-1.2-2.28-.6-3.64,1.48-3.38,3.46-6.66,4.25-10.2,1.9-8.53,3.2-17.17,1.85-25.97-.32-2.07-.22-4.21-.22-6.32,0-.42.33-1,.68-1.22.25-.15.98.08,1.17.36.49.71,1.03,1.51,1.13,2.33.17,1.34.69,2.26,1.83,2.93.46-.77.84-1.39,1.65-2.75.57,2.44.9,4.14,1.41,5.8.16.53.77.92,1.18,1.37.36-.5,1-.99,1.03-1.52.16-2.32.02-4.63-.19-6.97-.59-6.89-2.02-13.5-5.39-19.56-.83-1.5-2.33-2.69-3.66-3.85-1.26-1.1-2.48-.31-3.67.42-.29.17-.97-.31-1.26-.14-1.16.68-3.08-.74-3.74,1.38-.03.1-1.25,0-1.8-.25-2.64-1.24-2.44-4.09-3.74-5.91,4.09-.31,7.84-.64,11.61-.86.83-.05,1.81.07,2.51.47,4.8,2.72,7.54,7.23,9.83,11.98,1.09,2.28,1.84,4.82,2.21,7.33.68,4.65,1,9.35,1.39,14.04.06.74-.34,1.51-.39,2.28-.07,1.13-.02,2.26-.02,3.84,1.59-1.19,2.32-2.2,2.42-3.65.05-.75.14-1.54.38-2.25,1.81-5.53,3.58-11.07,2.42-16.99-.38-1.96-1.23-3.82-1.83-5.74-1.23-3.87-3.6-7.04-6.1-10.15-.44-.55-1.02-1.44-.84-1.91.21-.56,1.18-1.17,1.81-1.17,2.13,0,4.24.32,6.37.43,1.75.09,3.61.45,5.24,0,3.77-1.02,7.41-2.47,11.12-3.72,1.8-.6,3.69-1.71,5.42-1.53,1.93.21,3.61.22,5.48-.68-.42,1.36-.79,2.98-1.74,3.45-1.48.73-3.37.96-5.05.87-1.33-.07-2.08.32-2.89,1.21-.4.45-1.07.67-1.6,1.01-1.32.86-2.94.68-4.29,1.17-4.02,1.45-8.03,2.33-12.31,1.71-.68-.1-1.75.15-2.06.62-.27.41.07,1.6.52,2.02,2.6,2.37,3.63,5.58,4.97,8.65.41.94,1.13,1.76,1.71,2.63.19-.08.38-.16.56-.25v-3.86c2.22-1.16,4.52-2.35,6.64-3.45-.42,2.32-.91,4.84-1.32,7.38-.34,2.09-1.85,4.29.54,6.17.17.13.18.68.05.93-.68,1.42-.31,2.34,1.14,2.96.28.13.51.73.52,1.12.04,2.21.1,4.43-.02,6.63-.08,1.32-.53,2.62-.69,3.95-.13,1.12.36,2.14,1.56,2.14.49,0,1.44-.98,1.39-1.44-.37-3.62.53-7.06,1.35-10.5.64-2.71,1.26-5.46,2.24-8.06,1.54-4.08,3.27-8.11,5.12-12.07,2.13-4.56,3.65-9.42,6.63-13.59,1.29-1.81,2.44-3.76,3.38-5.77.46-.97.96-1.25,1.91-1.5,3.09-.83,6.14-1.82,9.35-2.79-.16,3.9-.02,8.04-.58,12.08-.54,3.9.31,7.6.68,11.37.33,3.51.87,7,1.43,10.48.19,1.18.59,2.36,1.13,3.42.22.43,1.25.88,1.63.7.6-.27,1.29-1.04,1.34-1.65.06-.83-.38-1.73-.73-2.54-1.5-3.5-2.07-7.15-2.15-10.95-.06-3.13-.03-6.38-.84-9.36-.91-3.35.55-6.04,1.28-9.07.87,1.7,1.28,3.51,2.01,5.18,2.12,4.78,4.22,9.58,6.61,14.22,1.59,3.07,3.63,5.92,5.55,8.82.22.34.94.36,1.43.53.19-.56.66-1.21.53-1.68-.34-1.17-1.01-2.25-1.46-3.4-.56-1.42-1.03-2.87-1.62-4.56,1.39.88,2.36,1.59,3.42,2.1.39.18,1.27.05,1.48-.25.32-.46.5-1.26.33-1.79-.28-.87-.89-1.63-1.65-2.95,1.49.64,2.35,1.16,3.29,1.37.57.13,1.24-.21,1.87-.34-.29-.55-.46-1.21-.88-1.61-.46-.43-1.16-.62-1.76-.92,5.13.71,10.32.85,15.39,3.42-1.24.25-2.11.61-2.95.56-1.99-.13-3.96-.5-5.94-.7-.57-.05-1.16.15-1.74.24.44.51.78,1.23,1.34,1.49,1.4.67,3.39.73,4.24,1.76,1.41,1.71,3.07,1.31,5.23,1.58-3.09.97-5.75,1.4-8.42.42-.96-.35-1.7-.25-1.84.62-.09.53.53,1.47,1.07,1.73,1.39.68,2.91,1.14,4.4,1.58,1.38.4,2.8.95,4.2.94,6.35-.06,12.46-1.33,18.09-4.4.5-.27.8-.89,1.66-1.9-1.87.39-3.04.82-4.22.83-.93.01-2.35-.21-2.7-.82-.6-1.04.58-1.68,1.45-2.19,1.07-.62,2.11-1.3,3.17-1.92,1.83-1.07,3.83-1.93,5.48-3.22,3.6-2.8,6.4-6.36,8.87-10.19.29-.46.73-.83,1.09-1.24.19.13.37.27.56.4-2.6,5.16-5.06,10.39-7.85,15.44-1.39,2.51-3.32,4.73-5.1,7.01-.57.73-.95,1.47-.17,2,.63.43,1.62.59,2.38.45.52-.09.95-.86,1.35-1.38,3.7-4.81,6.16-10.36,8.75-15.73,2.5-5.19,4.45-10.7,6.82-16.01.94-2.11,1.23-4.51,1.81-6.79.31.1.56.11.72.23,2.39,1.98,4.77,3.96,7.13,5.98,1.31,1.13,2.19,2.48,2.2,4.34,0,1.68.16,3.37.36,5.04.34,2.86.94,5.7,1.13,8.57.22,3.37-.15,6.79.26,10.13.27,2.2.11,4.1-.85,6.03-.24.48-.39,1.12-.3,1.63.52,2.93.5,5.85.19,8.8-.05.52.65,1.46,1.19,1.64,1.01.35,1.28-.51,1.34-1.4.25-3.78.45-7.56.79-11.33.23-2.54.96-5.06.92-7.59-.07-5.61-.49-11.21-.73-16.81-.02-.58.24-1.18.47-2.23,2.21,2.03,4.08,3.75,5.97,5.46,1.28,1.17,2.41,2.73,3.92,3.37,1.52.65,3.51.75,5.17.44,4.87-.91,8.09,2.09,11.72,4.35-.64.4-1.27.69-1.82.57-1.36-.3-2.79-1.32-3.99-1.08-2.68.54-5.27,1.08-8.05,1.04-2.15-.03-3.76-.01-4.25-1.78-.74-2.64-3.5-3.42-4.61-5.65-.1-.19-1.59.06-1.59.11,0,2-1.98,3.89-.24,5.99,1.3,1.57,1.26,3.44,1.06,5.41-.32,3.1-.36,6.24-.5,9.36-.04.9-.19,2.08,1.02,2.07.58,0,1.24-.99,1.71-1.64,1.04-1.44,2.06-2.9,2.96-4.44,1.08-1.85,2.57-1.66,4.53-1.25-.52,1.07-1.05,1.82-1.24,2.65-.41,1.71-1.25,3.65-.8,5.17.63,2.16.55,4.19.45,6.31-.05,1.01-.1,2.05.12,3.02.12.51.78,1.2,1.26,1.25.46.05,1.19-.51,1.44-.99.36-.67.42-1.51.53-2.29.58-3.79,1.59-7.45,3.26-10.91.5-1.03.94-2.01,2.31-2.14,2.18-.21,4.34-.52,6.33-.77-.84,3.37-3.03,6.35-3.21,10.06-.16,3.42-.7,6.83-.88,10.25-.15,2.97-.08,5.95.04,8.91.02.49.77.95,1.19,1.42.34-.4.83-.73,1-1.19.98-2.65,1.88-5.32,2.82-7.98,1-2.85,1.81-5.79,3.07-8.51,2.09-4.55,3.3-9.59,7.01-13.27,1.17-1.17,2.59-2.14,3.57-3.45,1.77-2.38,4.35-3.18,6.76-4.36.16.18.31.36.47.54-.74,1.37-1.57,2.7-2.2,4.12-1.54,3.47-3.39,6.87-4.37,10.49-1.4,5.17-2.38,10.5-3.08,15.82-.61,4.66-.93,9.41-.77,14.1.19,5.47,1.01,10.92,3.76,15.86.31.56.41,1.25.61,1.88.39,1.22-.22,2.07-1.28,2.28-.45.09-1.27-.63-1.61-1.18-1.63-2.67-3.13-5.43-4.72-8.13-1.25-2.11-2.45-4.28-3.92-6.23-.98-1.29-2.33-2.34-3.68-3.26-.63-.43-1.65-.28-2.49-.39.31.87.5,1.82.96,2.6.45.76,1.17,1.37,1.8,2,3.31,3.29,5.74,7.23,7.59,11.43,3.57,8.1,7.98,15.82,10.45,24.44,1.16,4.07,2.82,7.96,3.09,12.26.19,2.95,2.31,4.61,5.24,4.33,1.2-.12,2.43-.11,3.63-.27,1.89-.24,3.83-.37,5.64-.91,4.17-1.24,8.27-2.69,12.41-4.04,1.27-.41,2.56-.83,3.86-1.13,3.18-.73,6.34-1.4,9.67-.78,4.61.87,9.04.05,13.36-1.74,3.65-1.51,6.86-3.73,10.12-5.85,2.62-1.71,5.12-3.59,7.65-5.45,2.32-1.7,4.59-3.48,6.9-5.19.87-.65,1.73-1.4,2.72-1.8,2.78-1.14,5.62-2.09,8.43-3.15.92-.35,1.81-.8,2.69-1.24,2.99-1.5,5.99-2.98,8.94-4.55,2.35-1.25,4.76-2.47,6.93-4,1.81-1.28,3.09-3.36,4.98-4.44,3.23-1.84,4.83-4.91,6.78-7.75,1.27-1.85,2.45-3.77,3.6-5.7,2.82-4.7,5.95-9.26,7.12-14.77.11-.51.4-1.07.79-1.42,2.46-2.25,5-4.41,7.47-6.66.99-.9,2.18-1.79,2.7-2.94,1.14-2.52,2.05-5.14,1.97-8.04-.05-2,.07-4.07.54-6.01,1.08-4.45,1.24-8.58-.68-13.04ZM386,225.15c.13-.26.57-.61.75-.55.35.12.83.47.86.76.09.95.33,2.13-.1,2.85-1.16,1.94-2.64,3.69-4,5.52-1.33-3.63,1.2-5.9,2.49-8.58ZM385.68,205.1s.09-.01.14-.02c.37-.8.69-1.64,1.09-2.42.14-.26.28-.51.44-.75.33-.5,1.23-1.06,1.71-.94.72.18,1.83.94,1.83,1.44-.03,2.48.68,5.06-.92,8.01-.42-1.38-.82-2.25-.95-3.16-.11-.73-.33-1.25-.65-1.61,0-.01-.02-.03-.03-.04-.08-.09-.17-.15-.26-.21-.04-.03-.08-.07-.12-.1-.08-.05-.17-.08-.26-.12-.06-.03-.12-.06-.18-.08-.08-.03-.18-.04-.27-.05-.08-.01-.15-.04-.24-.05-.1,0-.22,0-.32,0-.08,0-.16,0-.24,0-.16,0-.33.04-.5.06-.04,0-.08,0-.12.02-.02.04-.03.08-.05.11-.02,0-.04.01-.06.02.02.06.04.12.05.19.03.11.07.21.09.31.02.09.02.17.02.25,0,.07.02.15.02.21,0,.12-.02.24-.03.36,0,.03,0,.06,0,.09-.14.72-.63,1.36-1.28,2.03-.28-1.02-.46-1.66-.47-2.1-.02-.74.42-.91,1.61-1.35-.01-.04-.02-.07-.04-.11ZM389.88,211.82c-.48,2.54-.94,5.01-1.44,7.65-2.75-2.32-2.24-5.04-1.82-7.79,1.16.05,2.11.09,3.26.15ZM286.75,187.88c.68-1.01,1.49-1.93,2.32-2.82,1.11-1.19,2.89-2.15,1.19-4.15-.17-.2-.24-.77-.09-.93,1.55-1.67.26-3.52.44-5.26.23-2.19.49-4.51,1.4-6.47,2.11-4.55,4.62-8.91,6.93-13.36.3-.58.42-1.25.74-2.23-2.37-.46-4.58-.9-6.96-1.37,1.18-2.97,3.36-5.4,5.99-7.47,1.32-1.04,2.75-1.92,4.05-2.98,2.52-2.05,5.03-3.94,8.19-5.16,2.55-.98,4.92-2.46,7.57-3.39,4.98-1.75,10.07-2.36,15.28-2.74,6.39-.47,12.01,1.8,17.8,3.91,4.73,1.71,8.77,4.45,12.63,7.47,3.95,3.08,7.55,6.55,10.11,10.98.65,1.13,1.76,1.99,2.64,2.99.42.48.83.97,1.18,1.51.9,1.41,1.77,2.84,2.65,4.26.29.47.75.92.81,1.41.08.7-.13,1.44-.22,2.16-.52-.47-1.26-.85-1.53-1.44-.99-2.18-2.29-4.06-4.17-5.61-.92-.76-1.58-1.87-2.22-2.91-.78-1.25-1.6-2.38-3.46-2.77.06,2.01-.32,3.68,1.34,5.31,2.26,2.2,2.29,5.4,2.69,8.33.18,1.29-.24,2.65-.18,3.97.06,1.28-.06,2.72,1.95,2.98.64.08,1.03,1.45,1.75,1.78,1.86.89.41,3.68,3.02,4.42,1.93.55,1.08,3.1,1.44,5-3.34-.61-5-3.05-6.78-5.13-5.04-5.86-11.21-7.1-18.47-5.35-3.17.76-5.89,1.93-7.87,4.73-.97-1.81-1.9-3.39-2.65-5.05-.14-.3.59-.91.67-1.42.06-.46-.09-1.08-.38-1.43-.17-.2-1.04-.18-1.19.02-1.35,1.9-2.81,3.77-3.8,5.85-.32.69.33,2.35,1.05,2.94,2.09,1.72.91,3.03-.17,4.59-5.01-2.07-9.25-.23-13.5,1.55-.3.13-.52.59-.79.59-.55.02-1.38,0-1.58-.31-.37-.6-.6-1.26.61-1.74,3.87-1.53,4.86-5.13,2.65-8.56-1.41-2.19-3.5-3.39-5.79-4.36-.34-.14-.83.07-1.24.12.14.46.17,1.05.47,1.37.62.63,1.43,1.08,2.1,1.67.55.49,1.01,1.08,1.64,1.77-1.65.43-2.94.79-3.68-.93-.12-.28-.46-.58-.75-.64-.62-.14-1.28-.13-1.91-.18.12.59.05,1.33.38,1.76,1.27,1.62,2.68,3.14,4.03,4.7-.16.17-.31.34-.47.51-.71-.59-1.66-1.05-2.08-1.81-1.25-2.24-3.35-2.73-5.58-3.26-5.97-1.44-11.52-.15-16.88,2.38-3.48,1.64-6.6,3.62-8.15,7.53-.58,1.48-2.17,2.54-3.2,3.87-.59.76-1.14.65-1.62.1-.28-.33-.52-1.07-.34-1.34ZM363.33,196.53c-4.04.02-7.75-1.51-11.17-3.24-2.22-1.12-3.1-3.97-2.99-6.71.02-.44.24-.88.26-1.32.27-4.38,2.37-7.29,6.62-8.71,3.07-1.03,6.03-2.11,9.41-1.64,4.87.68,8.45,3.33,10.49,7.48,1.4,2.85.67,6.13-1.24,8.92-2.76,4.03-6.8,5.19-11.39,5.22ZM372.88,196.07c-.12.61,0,1.51-.38,1.8-3.05,2.42-6.43,4.17-10.64,4.49-.32-.05-1.12.04-1.35-.27-.28-.39-.06-1.12-.06-1.71,1.55.76,2.23-1,3.48-1.22,2.65-.47,5.23-1.18,7.42-2.92.34-.27,1.02-.13,1.54-.17ZM344.73,190.08c-1.47-2.4-3.39-2.86-5.65-2.56-.6.08-1.38-.06-1.86-.4-.48-.34-.68-1.06-1-1.62.54-.3,1.11-.88,1.62-.84,1.98.15,3.95.46,5.9.83.39.08.89.68.95,1.1.14.96.05,1.95.05,3.48ZM313.96,205.55s-.02.05-.03.07h-.02s-.03-.02-.04-.03c-.39.12-.78.23-1.16.32h0c-.32.08-.64.13-.96.19-.07.01-.14.03-.21.04-.25.04-.5.05-.75.07-.14.01-.27.03-.41.04-.18,0-.36,0-.53,0-.21,0-.41,0-.62,0-.1,0-.19-.02-.28-.03-.29-.03-.58-.05-.87-.11-.02,0-.03,0-.05-.01-.74-.14-1.48-.37-2.21-.71-.37-.17-.75-.37-1.12-.6.38.09.76.15,1.14.18.09.01.18,0,.28.01,2.59.18,5.24-.54,7.77.6h0s.02,0,.03-.01c.64-1.34.96-2.03.78-2.42-.2-.44-1.02-.5-2.79-.64-1.01-.08-2-.58-2.97-1.23,5.8.36,10.16-2.97,15.27-5.95-.27.68-.56,1.33-.87,1.93-.17.34-.37.64-.57.96-.15.24-.28.51-.44.74-.27.39-.56.75-.85,1.11-.1.12-.19.26-.29.37-.33.39-.69.74-1.05,1.09-.07.07-.14.15-.2.21-.41.38-.84.74-1.28,1.07-.03.02-.05.04-.07.06-.47.35-.95.69-1.46,1h0c-1,.62-2.06,1.17-3.17,1.67ZM316.41,207.97c-1.32.44-2.64.88-3.96,1.31-.07-.28-.14-.56-.22-.84,1.32-.4,2.63-.8,3.94-1.2.08.24.16.49.24.73ZM320.72,195.1c-2.99,2.55-6.4,2.98-10,2.91-1.89-.04-3.77-.45-5.65-.75-3.66-.57-5.69-2.61-6.39-6.17-.25-1.23.68-3.15-1.67-3.38.2-1.28.08-2.74.67-3.8.9-1.61,1.9-3.27,3.94-3.91,2.54-.81,5.02-1.83,7.53-2.76l-.1.07c6.62-1.76,12.53,1.2,14.71,7.39,1.69,4.81.82,7.11-3.04,10.41ZM281.63,218.58c-.16-1.58-.3-2.95-.44-4.31.25-.06.5-.13.75-.2.83,1.7,1.78,3.35,2.43,5.12.24.66-.14,1.63-.42,2.39-.69,1.86-1.76,3.63-2.15,5.54-.58,2.84,2.59,5.43,5.4,4.66.97-.27,1.55-1.06.69-1.65-3.37-2.31-1.09-5.05-.73-7.62.15-1.04.66-2.03.89-2.7,3.15,4.38,2.01,10.23,3.73,15.38.2.61.12,1.36,0,2.01-.36,2.16-2.51,3.11-4.32,1.88-1.28-.87-2.53-1.82-3.72-2.82-2.86-2.4-3.84-5.69-4.14-9.24-.21-2.46-.26-4.93-.48-7.4-.08-.98-.29-1.99-.68-2.88-1.59-3.57-.92-7.02.42-10.43.2-.51,1.09-1.29,1.27-1.19,1.63.87,3.24.32,4.89.23,1.63-.09,2.2.8,2.08,2.6-.11,1.61-.26,3.21-.4,4.99-1.78-2.26-3.41-4.33-5.1-6.48-4.23,5.72-4.22,8.78.03,12.12ZM194.1,147.55c.02-.4.94-.91,1.53-1.07,4.02-1.12,8.21-1.19,12.3-1.95,2.56-.47,4.85.73,7.08,1.79,4.13,1.96,8.5,3.56,11.68,7.07.37.4.63.9.76,1.09-.99,1.12-1.9,2.09-2.71,3.14-.22.29-.31.94-.13,1.19.19.27.78.4,1.18.37,1.47-.11,2.93-.37,4.39-.43.45-.02,1.04.3,1.35.66,2.21,2.55,3.06,9.58,1.44,12.51-.49.88-1.41,1.51-2.48,2.61-.25-1.28-.42-1.9-.48-2.54-.54-5.32-3.72-8.86-7.89-11.73-.36-.25-.93-.28-1.16-.6-3.31-4.47-8.49-5.88-13.17-8.11-.37-.18-.87-.2-1.3-.16-2.99.29-5.97.7-8.97.87-1.02.06-2.63-.19-3-.84-.59-1.05-.51-2.57-.43-3.87ZM197.67,168.85c1.38-2.55,2.7-5.13,3.95-7.75,1.12-2.35,3.23-2.92,5.35-2.54,3.25.58,6.64.79,9.51,2.93,1.14.86,2.9.84,4.23,1.52,3.11,1.59,5.11,4.3,6.54,7.38.44.94.44,2.2.28,3.26-.32,2.05-1.02,2.3-3.23,2.01-1.87-.25-3.78-.3-5.67-.31-6.92-.05-13.83-.05-20.74-.07-1.09,0-2.18,0-4.01,0,1.45-2.46,2.68-4.41,3.78-6.44ZM188.71,149.93c.52.94,1.12,1.85,1.54,2.83.21.48.09,1.09.11,1.65-.57-.29-1.52-.48-1.66-.91-.34-1.1-.31-2.32-.43-3.49.14-.03.29-.06.43-.09ZM180.89,160.99c-.29-2.75.48-5.18,2.47-7.36.59,2.74,1.43,5.31-.43,7.7-.31.39-.8.64-1.22.95-.28-.43-.78-.84-.83-1.29ZM182.67,168.8c.94-2.49,1.83-5.06,5.23-6.11-2.03,5.08-3.59,10.02-7.03,14-.29-.12-.59-.24-.88-.36.89-2.51,1.75-5.03,2.68-7.52ZM97.19,240.29c.34.13.81.24.81.32-.03.79-.15,1.57-.24,2.36-.19-.02-.38-.04-.57-.06v-2.63ZM118.61,306.63c-2.06-1.88-4.2-3.71-6-5.82-2.17-2.55-3.92-5.44-6.03-8.05-1.66-2.04-1.45-4.67-2.54-6.86-.47-.94-1.17-2.59-1.66-2.56-1.63.13-1.36,1.68-1.35,2.9,0,.1-.05.22-.14.58-.38-.18-.7-.37-1.04-.5-.88-.33-2.19-.38-2.54-.99-.64-1.12-.81-2.55-.98-3.87-.26-1.99-.28-4.02-.56-6-.07-.52-.72-.97-1.1-1.44-.55.46-1.49.85-1.58,1.39-.51,3.04-.81,6.12-1.2,9.35-1.63-3.88-2.91-7.56-2.36-11.94.45-3.52.2-7.14.95-10.67.84-3.91,2.64-7.24,5.79-10.7-.23,2.22-.73,3.78-.43,5.16.28,1.25,1.44,2.31,2.15,3.35,1.24-1.72,2.48-3.24,3.5-4.89,2.94-4.8,5.47-9.77,5.57-15.58.05-2.63-.96-3.54-3.23-3.61-1.35-.04-1.54.62-1.54,1.61,0,1.24.15,2.48.05,3.7-.04.41-.68.76-1.04,1.13-.3-.41-.75-.78-.85-1.23-.17-.76-.03-1.58-.19-2.35-.1-.51-.51-1.37-.77-1.37-2.76.03-1.94-2.07-1.75-3.29.31-2.06.78-4.24,1.78-6.03,2.13-3.79,4.52-7.44,7.02-10.99,2.22-3.15,6.02-4.16,9.18-5.98,1.46-.84,2.44-1.81,3.06-3.36,1.39-3.43,2.95-6.79,4.38-10.2,1.12-2.67,2.68-4.84,5.43-6.1,5.02-2.28,10.01-4.52,15.74-3.9.54.06,1.11-.12,1.66-.23,4.58-.89,9.14-1.83,13.72-2.68,2.19-.41,4.48-.44,6.6-1.07,2.75-.82,5.29-2.56,8.07-3.01,6.11-.99,11.79-3.95,18.42-2.77,4.98.89,10.23.19,15.37.22,2.85.02,5.71.06,8.56.13,1.01.02,2.12.45,3,.16,3.59-1.21,6.34.59,9.08,2.32,4.69,2.97,9.47,5.65,14.88,7.17,2.63.74,5.15,1.99,7.58,3.28,2.24,1.19,3.76,4.99,3.06,7.26-.25.8-.87,1.73-1.57,2.09-3.09,1.55-6.26,2.98-9.45,4.34-5.63,2.4-11.04.29-16.41-1.08-6.05-1.54-11.91-3.84-18.35-3.39-4.12.29-8.27.33-12.4.22-2.65-.07-5.29-.62-7.8-.94-.78-1.31-1.4-2.69-2.33-3.82-.8-.97-1.9-.81-2.41.41-.52,1.24-1.33,1.99-2.56,2.49-2.69,1.1-5.45,2.1-7.98,3.5-3.19,1.76-6.64.59-9.91,1.26-.33.07-.75-.44-1.16-.58-1-.35-2.01-.71-3.04-.94-1.47-.32-2.94-.16-4.48-.83-1.49-.65-3.54.07-5.33-.42-.1-.03-.72.94-.6,1.17.35.67.9,1.29,1.5,1.77,1.15.92,2.39,1.72,3.33,2.88-1.51,1.01-2.12.25-2.87-.32-2.13-1.62-4.28-3.22-6.52-4.69-.81-.53-1.87-.81-2.84-.89-.47-.04-1.32.57-1.41,1.02-.1.44.5,1.06.85,1.56.11.15.41.18.63.22,3.3.6,5.06,3.46,7.8,4.88-.07.26-.15.52-.22.78-.61-.11-1.33-.04-1.8-.36-1.94-1.28-3.68-2.91-5.74-3.95-1.56-.79-3.45-.97-5.23-1.26-.4-.06-1.18.46-1.28.85-.1.39.31,1.17.7,1.37.98.51,2.22.58,3.1,1.19,2.54,1.76,4.95,3.69,7.26,5.85-1.32.11-2.56.38-3.55-.79-.22-.25-.92-.09-1.39-.12.01.4-.14.94.06,1.18.91,1.07.75,1.91-.15,2.94-.89,1.01-.35,2.14.74,2.39,1.31.31,2.57,1.6,4.09.49.32-.23.89-.36,1.27-.26,6.1,1.61,11.98-.59,17.97-.93,4.18-.24,7.63-2.46,11.58-3.16,2.42-.43,4.85-.94,7.29-1.12,1.69-.12,3.31.43,4.25,2.15.37.68.81,1.41,1.41,1.85,4.7,3.44,7.87,8.41,12.4,12.1,3.43,2.79,6.64,5.78,10.47,8.07,1.1.66,2.03,2.25,2.29,3.57.67,3.39.95,6.85,1.34,10.29.22,1.95,0,3.72-1.47,5.29-.8.86-1.16,2.13-1.85,3.47-.83-1.11-1.47-2.02-2.73-.96-1.17.99-2.47,1.85-3.78,2.65-2.7,1.66-2.86,1.6-4.84-.88-2.71-3.38-5.41-6.7-7.3-10.72-2.46-5.26-6.88-8.76-12.22-10.91-1.68-.67-3.7-.64-5.57-.66-2.56-.03-5.14.47-7.67.26-4.89-.41-9.73-1.53-14.61-1.69-5.22-.17-10.46.39-15.68.76-.4.03-1.09,1.12-1.02,1.64.25,1.78,4.07,4.54,5.92,4.22,3.29-.56,6.5.39,9.79.32,5.12-.11,10.21-.12,15.27-.98,3.31-.56,6.63-1.19,9.96-1.38,4.38-.25,7.82,2.05,10.33,5.34,1.95,2.56,3.23,5.62,4.86,8.43.61,1.06,1.31,2.08,2.08,3.02,1.92,2.34,4.08,4.51,5.82,6.97,1.07,1.5,1.67,3.37,2.25,5.15.59,1.81.78,3.75,1.35,5.57,1.39,4.42-.04,7.99-2.8,11.43-1.75,2.18-3.98,3.5-6.55,4.85-3.24-4.29-6.89-8.06-9.18-13.13-1.74-3.85-3.02-8.07-5.98-11.41-2.77-3.12-6.09-4.79-10.12-5.32-1.76-.24-3.5-.54-5.25-.82-.76-.12-1.54-.42-2.29-.37-7.6.54-15.18.83-22.65-1.14-.11-.03-.22-.09-.32-.09-1.2,0-2.39.02-3.59.04.3,1.36.51,2.75.95,4.07.24.71.83,1.33,1.33,1.94.87,1.07,1.86,1.41,3.27.86.99-.38,2.21-.55,3.25-.38,5.72.94,11.38.39,17.06-.33,3.55-.45,7.07-1.16,10.7-.36,2.82.62,4.96,1.98,6.23,4.58,1.86,3.81,3.55,7.71,5.57,11.43,1.49,2.73,3.35,5.26,5.14,7.82,1.22,1.73,2.89,3.19,3.86,5.03,3.14,5.99,3.2,9.01-1.43,13.19-1.51,1.36-3.3,2.4-4.97,3.59-.18-.22-.36-.44-.54-.66.59-.81,1.38-1.55,1.71-2.46.44-1.2.63-2.53.73-3.82.04-.45-.56-1.38-.77-1.35-.6.08-1.17.5-1.69.87-.26.18-.35.59-.58.82-.78.76-1.59,1.48-2.38,2.22-.69-1.08-1.68-2.07-1.98-3.24-.55-2.13-1.45-3.93-2.86-5.62-.96-1.15-1.46-2.7-2.26-4.26.99-.46,2.02-.82,2.9-1.41.45-.3.62-1.03.92-1.57-.55-.28-1.09-.78-1.65-.8-.75-.03-1.51.34-2.28.44-.38.05-.97-.02-1.16-.26-.21-.28-.2-.86-.07-1.24.13-.39.62-.66.78-1.05.36-.86,1.11-2.08.79-2.58-.6-.96-1.76-1.75-3.18-1.03-.29.15-.64.18-1.08.3-.07-.48-.04-.95-.2-1.33-.28-.66-.68-1.27-1.02-1.9-.53.52-1.11.99-1.58,1.55-.78.94-1.44,1.99-2.27,2.88-.31.33-.98.32-1.49.47-.07-.48-.24-.97-.19-1.44.13-1.11.48-2.21.49-3.32,0-.49-.61-.98-.94-1.47-.39.33-1.08.62-1.13,1-.44,3.63-3.55,3.6-6,4.42-.94.31-2.02.6-2.96.46-2-.31-2.04,1-2.1,2.04-1.83-.4-3.53-.87-5.27-1.13-2-.3-4.02-.56-6.04-.59-1.88-.02-3.76.28-5.63.48-2.43.26-4.86.55-7.33.84,0,1.33,1,1.47,1.99,1.78.37.11.59.69.88,1.05-.52.23-1.2.8-1.52.64-3.53-1.82-7.61-3.02-9.39-7.44-.04.53-.26,1.14-.09,1.6.5,1.36,1.22,2.64,1.7,4.01.14.38-.09,1.18-.4,1.36-.34.19-.97-.07-1.45-.22-.17-.05-.21-.43-.38-.53-.58-.32-1.19-.58-1.79-.87.15.7.19,1.46.48,2.11.39.87.98,1.65,1.84,3.06-2.75-1.9-2.64-1.95-4.07-4.92-.42-.87-.67-2.9-2.36-2.08-1.4.68-.29,2.31.14,2.97,1.94,2.93,2.72,6.63,5.79,8.81,1,.71,1.92,1.52,2.85,2.29.41.34,1.18.91,1.11,1.05-.71,1.47-1.4,2.99-2.41,4.25-.88,1.09-2.12.55-2.99-.26ZM103.81,243.12c.06-1.04.11-2.07.16-3.11.12,0,.25,0,.37.01v3.11c-.17,0-.35,0-.52-.01ZM207.1,212.94c-.83-1.68-.98-2.89,1.35-3.45.81-.19,1.43-1.2,2.33-2.01.15.2.34.67.69.9.37.24.88.25,1.33.36-.02-.41.1-.91-.09-1.2-.9-1.39-1.89-2.72-3.19-4.56,1.65-.15,2.83-.42,3.97-.32,2.03.18,1.89.66,1.71,2.78-.29,3.51-2.05,6.49-2.92,9.78-.67,2.54-1.97,4.91-3,7.35-1.03,2.45-2.09,4.89-3.21,7.5-2.05-1.07-3.56-2.36-4.99-4.1-2.77-3.35-6.21-6.14-8.26-10.09-3.05-1.57-4.9-5.35-9.16-4.63.53-2.7,1.93-4.08,4.48-3.83,1.99.19,4.05.37,5.89,1.05,2.44.9,4.66,2.45,7.42,2.32,1.89-.09,3.11.81,4.02,2.39.29.5.95.8,1.8,1.47-.09-.88-.02-1.35-.19-1.7ZM172.61,210.24c-.33,1.7-.45,3.55-2.76,3.81-.88.1-1.27-.26-1.06-1.14.42-1.75,1.62-2.58,3.82-2.67ZM183.54,313.16c-.24.19-.49.38-.73.57-.22.19-.44.38-.66.57-.09-.4-.29-.81-.24-1.2.02-.21.48-.56.68-.53.34.06.63.38.94.59ZM175.81,343.22c2.59,3.75,5.46,7.3,8.49,11.32-3.42,1.02-5.95-.02-7.75-2.04-3.55-3.99-6.8-8.26-10.05-12.5-.41-.54-.28-1.72-.03-2.48.57-1.76,1.38-3.45,2.23-5.52,2.37,3.78,4.59,7.6,7.1,11.22ZM148.83,360.74c-1.29,1.26-3.23,1.9-4.93,2.67-.8.36-1.77.32-2.63.56-2.16.61-4.09,1.03-6.37-.29-2.16-1.25-4.79-1.76-7.28-2.31-3.68-.8-5.36-3.92-7.51-6.36-1.16-1.33-1.73-3.44-1.94-5.28-.53-4.68-.54-9.34,1.56-13.79.81-1.71,1.03-3.67,1.66-5.47,1.34-3.79,2.66-7.59,4.22-11.29,1.03-2.45,2.55-4.7,3.65-7.13,1.29-2.85,2.4-5.77,3.51-8.7.94-2.48,2.47-4.18,5.51-4.73-.11,1.17.03,2.24-.32,3.09-3.05,7.34-6.29,14.6-9.27,21.96-1.64,4.05-2.89,8.25-4.33,12.38-.85,2.42-1.73,4.85-2.55,7.28-1.13,3.39.37,6.62.67,9.92.04.48.53,1.09.97,1.31,2.29,1.16,4.56,2.42,7.21,3.04.35-1.8.61-3.18-1.19-4-.44-.2-.97-.83-.98-1.27-.08-3.97-.98-7.95.06-11.91.02-.06.39-.03.6-.05-.06-.81-.11-1.61-.17-2.42h.3c-.04.8-.09,1.61-.13,2.41.13,2.43.21,4.87.43,7.3.03.35.75.64,1.16.96.26-.42.62-.82.74-1.28.14-.53.17-1.13.1-1.68-.64-5.11,1.01-9.71,2.97-14.28,1.76-4.09,3.34-8.26,5.08-12.37.92-2.15,2.06-4.21,3.03-6.35,1.8-3.97,3.57-7.96,5.31-11.95.56-1.29,1.1-2.18,2.86-2.28,3.34-.18,6.66-1.13,9.99-1.18,3.01-.05,5.3,2.1,7.56,3.9,1.22.97,2.3,2.12,3.45,3.18,1.76,1.6,2.34,4.34,1.41,6.46-.49,1.12-1.04,2.25-1.3,3.43-1.1,4.97-3.41,9.45-5.41,14.06-.89,2.05-1.75,4.19-2.13,6.38-.82,4.72-3.36,8.67-5.32,12.89-2.41,5.19-6.26,9.26-10.24,13.17ZM225.63,290.95c1.97,3.94,3.9,7.78,4.86,12.06.51,2.25,1.06,4.53,1.15,6.81.26,5.87.72,11.78-.32,17.63-.53,2.95-1.24,5.88-2.2,8.72-1.31,3.91-2.86,7.75-4.43,11.57-1.85,4.51-5.81,7.3-8.99,10.72-2.31,2.49-5.27,3.99-8.43,5.12-.21.08-.45.14-.61.29-2.96,2.8-6.83,3.74-10.55,4.69-3.9,1-7.74,2.77-12.04,1.72-1.7-.41-3.59-.19-5.37-.03-6.3.56-10.63-3.55-15.5-6.4-.34-.19-.67-.7-.69-1.08-.1-2.33-1.78-3.83-2.96-5.54-1.02-1.47-1.63-2.67-.03-4.08.29-.25.32-.79.63-1.64,2.43,2.86,4.66,5.63,5.56,8.88.7,2.53,2.32,3.73,4.22,4.27,3.84,1.1,7.62,2.43,11.79,2.52,4.77.1,9.22-.77,13.84-1.74,4.99-1.04,8.65-4.1,12.75-6.47,2.77-1.6,5.15-3.94,7.54-6.11.81-.74,1.15-2.01,1.68-3.04.66-1.29,1.25-2.62,1.96-3.89,1.41-2.52,3.06-4.93,4.26-7.54.75-1.64.88-3.56.69-5.56-.96,1.45-1.95,2.9-2.88,4.37-1.25,1.99-2.41,4.03-3.7,5.99-1.31,2-3.98,2.05-5.58,3.97-1.41,1.69-3.89,2.5-5.87,3.75-.9.56-1.72,1.24-2.93,1.55.55-.71,1.11-1.42,1.67-2.13-.1-.16-.21-.31-.32-.47-1.27.72-2.54,1.46-3.82,2.17-.73.41-1.55,1.36-2.32.3-.72-.99.13-1.61.96-2.1,2.04-1.2,2.43-4.06,4.89-4.87.19-.06.39-.7.28-.86-.22-.31-.66-.66-1-.64-.77.03-1.54.24-2.3.42-3.18.75-6.06.27-8.14-2.41-2.18-2.8-4.26-5.69-6.24-8.64-2.37-3.52-4.47-7.21-6.89-10.69-1.1-1.59-2.67-2.85-4.41-4.65,3.42-.9,6.34-1.49,9.11-2.46,1.84-.65,3.6-1.7,5.21-2.84,2.5-1.77,5.47-2.76,7.09-5.9,1.36-2.65,1.66-5,.79-7.68-.24-.74-.41-1.53-.78-2.22-.59-1.08-.13-1.63.78-2.15,5.08-2.88,8.21-7.32,10.22-12.81,3.48,3.69,5.88,8.13,8.59,12.35.36.56.49,1.38.98,1.74,3.09,2.34,4.05,5.79,5.05,9.26.39,1.36.96,2.68,1.57,4.37,1.51-1.34,1.85-2.6,1.94-4.07.23-3.85-1.16-7.31-2.55-10.72-2.56-6.28-6.93-11.4-11.04-16.68-1.09-1.39-1.86-3.03-2.86-4.5-1.33-1.94-2.81-3.78-4.08-5.77-.33-.51-.07-1.39-.08-2.1.67.19,1.54.18,1.98.61.86.86,1.46,1.99,2.21,2.97,1.56,2.04,2.97,4.23,4.76,6.03,4.58,4.57,7.99,9.8,10.89,15.61ZM221.1,255.61c-.32.08-.88-.47-1.21-.83-1.46-1.61-1.77-3.54-1.53-5.65.31-2.77.71-5.56.71-8.34,0-1.71-.62-3.43-1.02-5.13-.41-1.73-.2-3.33.74-4.85.52-.83.92-1.66-.54-2.01-.17-.04-.43-.51-.36-.64.62-1.25,1.13-2.36-.13-3.66-.87-.9,1.05-2.67-.77-3.56-.1-.05-.15-.44-.07-.6.41-.83,1.75-1.53.67-2.58-.59-.58-1.61-.71-2.42-1.08-.24-.11-.42-.34-1.07-.9,2.58.14,4.61.27,6.63.37,3.19.15,6.37.28,9.55.42.22,0,.53-.11.65,0,2.61,2.1,5.61,3.9,7.65,6.46,1.3,1.64,1.23,4.4,1.67,6.67.09.46-.28,1.01-.46,1.5-1.41,3.86-3.9,7.33-4.14,11.6-3.42,4.8-1.56,10.48-2.47,15.7-.73,4.2-2.93,6.91-6.11,9.2-.49.35-1.2.38-1.59.49.22-1.21.42-2.33.61-3.45.07-.44-.09-1.04.15-1.32,1.59-1.95.61-3.21-1.25-4.24,1.54-1.1,2,.44,2.85.82.91.4,1.78.86,3.32,1.62-.5-1.11-.6-1.77-.98-2.08-2.64-2.14-5.03-4.92-9.07-3.94ZM287.72,258.45c-1.16,1.11-2.59,1.95-3.75,3.07-3.13,3.05-7.1,3.32-11.12,3.87-2.6.36-5.13,1.42-7.62,2.36-2.92,1.11-5.68,2.58-8.9,2.84-2.14.17-4.15.28-6.31-.25-2.71-.68-5.62-.87-7.9,1.47-1.41,1.45-3.07,1.42-4.6.43-2.01-1.3-4.01-.98-6.15-.55-2.39.48-4.82.76-7.25,1.05-.47.06-.99-.23-1.54-.65,4.26.5,6.59-2.95,9.65-4.67,2.28-1.28,3.34-4.14,3.57-6.97.26-3.24.53-6.48.79-9.72.41-5.21,2.6-9.9,4.39-14.7.89-2.38.34-5.14,2.08-7.25-.22-4.12-.83-8.05-4.87-10.39-1.55-.9-3-1.97-4.59-2.79-2.48-1.28-5.01-2.09-7.98-1.74-2.58.31-5.27-.15-7.9-.37-1.36-.11-2-1-1.59-2.34.65-2.11,1.37-4.21,2.17-6.27.12-.3.91-.57,1.31-.48,1.53.34,3.09.67,4.51,1.29,5.87,2.56,11.83,3.11,17.99,1.17.85-.27,1.8-.16,2.67-.37,4.93-1.19,9.91-2.34,11.44-8.27.13-.51.56-.98.93-1.39.18-.21.59-.38.83-.31.24.07.57.45.57.69-.04,2.3.69,4.15,2.76,5.38,1.24.73.5,1.73-.07,2.25-4.03,3.63-8.24,6.92-14.17,6.46-.65-.05-1.83.39-1.92.79-.17.74.12,1.73.53,2.43.37.64,1.07,1.23,1.77,1.5,3.63,1.4,6.79,3.95,10.85,4.35,1,.1,2.36.36,2.29,1.96-.05,1.32.17,2.7-1.71,3.18-1.93.49-2.87,2.24-3.43,3.92-.91,2.74-2.85,4.18-5.38,4.99-1.04.34-2.21.66-2,1.81.13.75,1.13,1.62,1.93,1.92,1.22.46,2.61.68,3.93.65,2.67-.05,5.37-.17,8-.59,1.59-.26,3.07-1.15,4.62-1.73.65-.24,1.34-.41,2-.62.21.71.51,1.41.58,2.13.04.38-.3.82-.53,1.2-.75,1.27-.45,1.98.97,2.55,2.4.97,2.61,1.42,1.51,3.67-1.07,2.18-1.98,4.54-4.47,5.7-.55.25-1.19,1.26-1.07,1.76.13.55,1.09,1.31,1.66,1.28,3.44-.19,7.09,1.42,10.29-1.19.81-.66,1.99-.87,3.36-1.43.11,1.7.15,3.01.29,4.31.09.93-.02,2.28.52,2.67,1.13.83,1.96-.37,2.81-1.1.57-.49,1.31-.87,2.03-1.08.37-.11,1.17.16,1.27.44.19.51.25,1.42-.06,1.71ZM295.23,257.14c-1.85.68-3.4.13-4.13-1.38-1.13-2.31-2.29-2.98-4.75-2.73-2.31.23-2.69-.11-2.6-2.33,0-.22.02-.45.04-.67.09-.82.18-1.65.27-2.47-1.07.11-2.19.03-3.18.37-.92.32-1.73,1.03-2.51,1.67-2.01,1.64-4.23,2.43-7.2,1.97.85-1.53,1.6-2.93,2.39-4.32,1.28-2.24.75-4.59.45-6.92-.05-.38-.47-.98-.77-1.02-1.69-.18-1.07-1.36-1.08-2.27-.05-2.96-.26-3.19-3.28-3.14-.87.02-1.74.17-2.6.31-3.74.59-7.47,1.2-11.6,1.87,1.83-4.33,4.4-7.4,7.42-10.03,1.82-1.59,1.64-3.23,1.13-5.16-.49-1.82-1.49-2.59-3.47-3.03-3.1-.68-6.04-2.07-8.98-3.8,1.16-.44,2.31-.94,3.49-1.3,4.41-1.35,7.14-4.8,9.98-8.06,1.21-1.38,1-2.69-.44-3.73-1.48-1.07-2.23-2.36-2.52-4.16-.39-2.45-.95-3.02-3.55-3.14-1.36-.06-1.93-.79-2.12-1.67-.14-.68.28-1.71.8-2.24,1.24-1.27,2.72-1.96,4.63-2.26,1.87-.29,3.67-1.53,5.29-2.65,1.12-.77.7-2.35-.63-2.93-1.03-.45-2.16-.65-3.17-1.12-1.63-.76-3.24-1.61-3.87-3.95,1.11.09,2.13.19,3.15.26.77.05,1.65.33,2.29.05,1.08-.47,2.51-1.1,2.86-2.01.47-1.23-.41-2.43-1.7-3.29-1.63-1.09-3.05-2.48-4.95-4.08,2.38-.71,3.34.59,4.39,1.4,3.17,2.44,3.13,2.46,6.31-.2.31-.26,1.02-.34,1.41-.18,1.83.77,3.64,1.61,5.41,2.53.43.22.88.79.95,1.25.23,1.71,1.21,2.78,2.51,3.82.6.48.56,2.13,1.1,2.28,1.79.52.2,1.36.4,1.88.44,1.16.61,2.21.41,3.46-.06.36,1.22.94,1.92,1.45-1.23,1.98-2.52,3.93-3.66,5.96-.92,1.64-.45,2.26,1.48,2.29.62.01,1.23.28,1.84.43-.24.58-.42,1.19-.72,1.74-.27.49-.57,1.02-1.01,1.34-1.43,1.07-1.99,2.31-1.37,4.09.35,1,.15,1.58-1.3,1.52-1.76-.08-3.21.91-3.86,2.66-1.55,4.24-2.81,8.34-.74,12.99,1.02,2.3.54,5.29.63,7.96.11,3.09.57,5.9,3.21,8.05,1.71,1.39,2.89,3.43,4.62,4.77,1.9,1.47,4.1,2.59,6.29,3.6.55.25,1.57-.5,2.75-.92,1.13,3.96,2.24,7.94,3.4,11.91.44,1.53.08,2.68-1.48,3.24ZM376.14,241.51c-4.08,6.67-8.16,13.33-13.29,19.28-1.29,1.5-1.84,3.37-3.23,4.91-2.79,3.09-5.75,4.76-9.98,5.21-4.77.51-9.5,1.27-14.33,1.53-3.25.17-6.2-.6-9.12-1.55-2.19-.72-4.29-1.92-6.22-3.22-5.42-3.64-10.41-7.79-14.67-12.78-1.59-1.86-3.4-3.52-5.11-5.27-2.54-2.62-4.24-5.8-5.14-9.23-.85-3.22-.94-6.63-1.42-10.35,2.23,1.28,2.28,3.32,3.04,4.92.23.48.01,1.22.3,1.62.33.44,1.01.62,1.53.91.25-.52.8-1.13.68-1.54-.43-1.5-1.12-2.94-1.66-4.41-.76-2.08-1.47-4.17-2.26-6.43,3.16-.81,3.72,2.16,5.41,3.75-.27-3.17,1.81-6.37-1-9.26-1.23-1.27-1.82-3.23-3.17-4.29-4.48-3.52-5.01-8.47-5.39-13.53-.06-.78.41-1.6.71-2.68,1.47,1.59,2.64,2.89,3.85,4.14,2.03,2.09,4.13,4.02,7.17,4.67,2.49.53,3.49,2.85,4.64,4.77.56.93,1,1.19,2.05,1.17,4.5-.07,7.36-2.92,10.19-5.82.22-.23.15-1.19-.05-1.28-.92-.45-.44-.77,0-1.12,1.49-1.16,3.03-2.27,4.47-3.48.57-.48,1-1.15,1.39-1.79.52-.86.83-1.88,1.45-2.65.59-.73,1.57-1.82,2.19-1.71,1.65.31.26,1.62.41,2.48.27,1.66.29,3.39.79,4.97.24.74,1.3,1.59,2.09,1.71,1.19.17,1.21-1.06,1.25-1.96.1-2.34.19-4.69.23-7.04.04-2.93.4-3.39,3.32-4.01.33-.07.65-.18.99-.22,3.05-.4,4.03.41,4.34,3.46.14,1.38.45,2.75.76,4.61,1.35-.95,2.2-1.55,3.21-2.25,1.5,3.52,4.21,5.42,7.81,6.22.91.2,2.07.36,1.69,1.93-.08.33.65,1.06,1.16,1.29.9.42.9.75.27,1.43-1.14,1.26-.25,1.86.89,1.96,1.77.16,3.6.33,5.34.05,2.41-.4,4.77-1.14,7.1-1.89.42-.14.61-1,.9-1.53-.49-.13-.99-.36-1.49-.37-.6,0-1.2.19-1.95-.11.53-.37,1.04-.75,1.58-1.1.47-.31,1.39-.63,1.36-.88-.3-3.26,2.99-3.17,4.38-4.81.57-.68,1.19-1.32,2.06-2.3.78,1.27,1.81,2.23,1.97,3.31.64,4.51.58,8.92-3.09,12.45-1.43,1.37-2.58,3.03-4.07,4.81,2.71,1.09,4.51-.9,6.59-.83.41-.66.82-1.32,1.24-1.97.15.11.3.22.46.34-.53.57-1.07,1.15-1.6,1.73-.41.91-.94,1.79-1.2,2.74-.24.9-.25,1.87-.28,2.82-.02.76.08,1.52.11,2.29.07,2.02-.29,4.16.28,6.03,1.14,3.83,0,7.03-1.91,10.17ZM381.71,253.81c-1.91-1.69-3.4-3.87-4.95-5.93-.27-.36-.16-1.33.15-1.74,1.84-2.41,3.56-4.85,4.18-7.9.05-.22.12-.62.19-.62,2.77-.15,2.84-3.35,4.77-4.27,2.35-1.12,3.23-3.14,3.67-5.31.69-3.4.96-6.88,1.51-10.31.54-3.41,1.14-6.81,1.83-10.19.53-2.63.54-5.12-1.08-7.4-.2-.27-.45-.52-.6-.81-.66-1.34-3.67.12-3.19-3.03.21-1.4-1.59-3.1-2.78-5.19,1.94.31,2.72-.52,2.71-2.19,0-.44.26-.93.15-1.31-1.27-4.23-.66-8.61-.97-12.91-.31-4.46-1.29-8.63-3.14-12.65-.19-.42-.26-1.26-.02-1.45,3.5-2.78,6.46-6.03,9.1-9.84-.08.66-.01,1.39-.27,1.97-.55,1.22-1.41,2.32-1.88,3.57-.21.55.1,1.89.36,1.94,1.85.35,1.63,1.25,1.07,2.61-.42,1.01-.61,2.18-.6,3.28,0,.66.41,1.62.94,1.93,4.57,2.66,6.25,7.47,9.08,11.76-1.53.29-2.66.67-1.84,2.57,2.13,4.98,1.54,4.57,8.77,6.33-.6,3-2.45,4.67-5.41,5.15-2.27.37-4.17.99-3.81,3.95.07.6-.4,1.27-.63,1.9-.48,1.32-.22,2.32.98,3.22,2.64,2,3.25,5.07,4.31,8.33-1.54-1.12-2.65-2.05-3.89-2.76-.43-.25-1.41-.19-1.7.13-.29.33-.26,1.25-.01,1.72,1.6,3.04,3.35,6,4.92,9.05.7,1.37,1.11,2.88,1.79,4.71-1.66-.37-2.39-1.11-2.86-2.33-.41-1.06-1.33-1.79-2.37-.96-.92.72-2.06,1.92-.95,3.13,1.74,1.91,1.71,4.18,1.5,6.36-.4,4.09.51,7.58,3.78,10.28q-2.59,1.55-4.46-.17c-.41-.38-.83-.78-1.32-1.02-1.55-.77-2.67,0-2.59,1.77.02.44.07.93.29,1.3,1.76,3.04,1,6.27.92,9.87-3.25-1.65-6.25-3.04-8.41-5.67-.55-.67-.75-1.9-1.9-1.38-1.28.58-2.24,1.71-1.86,3.24.57,2.27,1.31,4.49,2.06,6.71.36,1.04.91,2.01,1.57,3.44-3.05.12-5.27-1.24-7.09-2.86ZM519.38,209.04c1.91-.35,3.65-.26,4.97,1.74.82,1.24,2.28,2.15,3.6,2.96,2.19,1.36,3.51,3.33,4.68,5.53.57,1.06,1.45,1.95,2.19,2.91.47.61.99,1.18,1.42,1.81.78,1.14.43,1.77-.9,2.14-3.79,1.06-7.69.99-11.55,1.4-3.64.38-7.21,1.42-10.79,2.25-.63.14-1.25.56-1.74,1.01-1.75,1.6-3.53,2.28-6.08,1.78-2.77-.55-5.52.84-6.91,3.15-3.12,5.2-7.61,8.15-13.2,10.03-3.54,1.19-6.95,1.18-10.47.41-4.2-.92-6.05-6.51-3.49-9.9,3.55-4.71,6.71-9.73,10.42-14.3,1.26-1.55,1.7-3.92,3.96-4.63.16-.16.3-.33.43-.51,1.69-4.38,5.47-5.2,9.49-5.42,5.48-.3,10.99-.3,16.46-.72,2.53-.19,4.99-1.17,7.51-1.62ZM472.95,206.94c.44-.67.77-1.31,1.23-1.83,2.33-2.59,2.7-2.56,4.42.51,1.36,2.42,2.79,4.83,3.86,7.38.76,1.81.42,3.63-.99,5.3-1.55,1.84-2.8,3.94-4.19,5.93-.25.36-.51.76-.86,1-.5.35-1.09.57-1.63.84-.21-.49-.49-.96-.62-1.47-.13-.54-.07-1.12-.2-1.66-1.31-5.49-4.96-7.53-10.36-5.75-1.42.47-2.79,1.12-4.18,1.69,3.88-5.8,10.02-8.05,16.33-11.22-1.35-.35-1.96-.5-2.83-.73ZM480.68,194.42c2.69,1.78,5.59,3.25,8.43,4.8,1.2.65,2.37.82,3.84.28,1.09-.4,2.37-1.85,3.77-.45.37-.43.74-.86,1.37-1.57,2.74,2.34,6.55,3.52,8.7,6.94.72,1.15,2.09.81,2.62-.46,1.06-2.55-.26-6.69-2.79-8.21-5.99-3.61-12.06-7.11-18.06-10.71-2.85-1.71-5.62-3.53-9.08-5.71,3.22.44,5.56,1.34,7.44,2.8,3.16,2.46,6.81,3.85,10.3,5.62,4,2.03,7.95,4.16,11.82,6.42,1.08.63,2.27,1.72,2.6,2.84.89,2.98,1.4,6.08,1.89,9.16.07.45-.7,1.31-1.26,1.53-.8.32-1.77.24-2.66.3-6.13.41-12.26.75-18.38,1.29-1.08.1-1.6-.07-2.2-.9-1.63-2.25-3.26-4.51-5.76-5.94-.95-.54-1.76-1.33-2.73-1.83-3.78-1.92-4.09-2.04-6.46,1.17-2.27,3.09-5.18,5.26-8.49,6.84-2.06.98-4.52,1.52-6.79,1.51-2.89-.02-5.78-.74-8.65-1.28-2.37-.44-4.08-1.8-4.77-4.19-.46-1.61-.98-3.23-1.19-4.89-.4-3.14.53-4.08,4.42-4.65-.31.49-.47.85-.72,1.11-.74.77-2.22,1.56-2.15,2.22.15,1.46,1.05,2.84,1.68,4.23.13.29.38.6.65.76.72.42,1.49.75,2.23,1.12.28-1.01.94-2.09.77-3.01-.51-2.65-.67-2.66,1.6-4.05,1.32-.81,2.78-1.4,4.09-2.22,1.05-.66,1.88-1.33,2.53.46.1.28,1.44.35,2.09.14,3.53-1.15,7.2-1.26,10.84-1.61.65-.06,1.26-.46,1.91-.64,2.29-.63,4.41-.65,6.56.78ZM453.67,219.29c-2.11.52-3.33-.06-4.19-1.84-1.15-2.37-2.49-4.66-3.96-7.37,2.8.86,5.46,1.02,6.08,4.49.28,1.58,1.3,3.02,2.07,4.72ZM468.35,182.15c.94-.82,1.92-1.57,3.1-1.92,0,0,.02,0,.03-.01.26-.07.53-.12.81-.15.04,0,.08-.02.13-.02.26-.02.53,0,.81.01.07,0,.14,0,.21,0,.02-.02.04-.05.06-.07h.02s0,0,0,0c.11,0,.21,0,.32,0,.69-.2,1.38-.39,2.06-.59.03.2.06.4.09.59h-2.17c-.07.02-.14.04-.22.06-.04,0-.08,0-.12,0-.71.79-1.29,1.74-2.13,2.35-4.81,3.46-9.58,6.98-14.59,10.14-2,1.26-4.55,1.65-7.06,2.04,1.54-.79,3.04-1.67,4.63-2.35,4.84-2.06,8.73-5.43,12.62-8.83.47-.41.93-.85,1.4-1.26ZM466.62,179.77c-.15.31-.22.7-.44.89-2.65,2.22-3.85,5.89-8.04,6.67-2.67.5-5.04,2.6-7.53,4-1.97,1.11-2.3,1.1-3.34-1.18-1.33-2.9-2.55-5.87-3.63-8.87-1.35-3.75-2.43-7.6-3.82-11.34-.39-1.05-.44-1.61.48-2.21,1.86-1.2,3.63-2.54,6.06-2.44,2.66.1,5.34-.12,8,.03,4.93.27,7.8,2.8,9.32,7.66.56,1.8,1.48,3.5,2.25,5.24.22.51.46,1.02.7,1.55ZM460.9,158.17c4.27,2.14,5.22,5,3.27,10.27-.7-1.19-1.5-2.02-1.65-2.96-.18-1.17-.44-2.06-1.4-2.86-1.69-1.39.38-2.85-.22-4.46ZM429.93,179.34c.03,1.84-1.31,3.36-2.3,3.18-1.46-.27-3.29-2.43-3.05-3.95.39-2.4.76-4.87,1.64-7.12,2.33-5.89,5.99-10.78,12.3-12.73,4.04-1.25,8.29-1.85,12.44-2.73.02.12.05.25.08.37.78-.09,1.56-.28,2.34-.27,1.72.03,2.88,1.25,3.04,2.95.1,1.06-.22,1.67-1.32,1.94-3.8.93-7.58,1.96-11.38,2.88-4.54,1.09-7.95,3.74-10.5,7.55-1.61,2.41-3.35,4.75-3.3,7.93ZM442.68,195.62c-.86.87-.88,2.57-1.33,4.06-.41-.66-.91-1.26-1.18-1.95-2.04-5.19-3.99-10.41-6.05-15.58-1.36-3.43-1.2-6.29.57-8.72,2.75,5.99,5.61,12.08,8.31,18.23.54,1.21,1.08,2.54-.32,3.97ZM452.04,258.96c-.19-.12-.35-.29-.49-.46-1.05-1.32-2.27,1.84-3.4-.18-.76-1.35-1.9-1.33-3.11-.29-.22.19-1.13-.12-1.47-.45-3.72-3.65-7.48-7.31-9.72-12.1-.67-1.44-.65-3.22-.91-4.85-.26-1.65-.17-3.42-.75-4.93-1.82-4.72-.85-8.43,3.4-11.26,1.49-.99,2.88-2.13,4.39-3.07.41-.26,1.12-.04,2.34-.04-1.92,1.35-3.18,2.42-4.61,3.19-4.35,2.34-4.15,6.05-3.54,10.17.41,2.8,1.21,5.17,4.16,5.77,2.48.5,5.11.26,7.62.67,1.76.28,3.03-.52,4.41-1.2.27-.13.34-.67.5-1.02-.29-.11-.63-.38-.85-.31-1.66.54-3.05.16-4.3-1.02-1.13-1.07-1.64-2.85-.6-3.8,1.33-1.2,1.56-2.63,1.83-4.18.19-1.14.54-1.88,2.08-2.07,3.31-.4,6.59-1.17,9.84-1.96,1.16-.28,2.31-.91,3.28-1.63,1.48-1.1.22-2.13-.6-3.42.71-.27,1.15-.4,1.54-.6,3.93-1.97,7.34-.23,8.05,4.14.2,1.22.31,2.45.5,3.66.23,1.51,0,2.82-1.02,4.09-1.6,1.98-3.05,4.09-4.47,6.2-2.03,3.03-5.23,4.27-8.47,4.94-2.9.6-5.98.33-8.98.42-.44.01-.94-.24-1.32-.11-.7.24-1.34.68-2,1.04.36.59.6,1.3,1.08,1.74,2.73,2.46,6.23,4.15,7.89,7.66.55,1.16.95,2.52.95,3.8.01,2.21-1.25,2.72-3.23,1.48ZM480.23,361.8c-3.81-1.37-7.31-3.27-10.97-4.89-.3-.13-.54-.53-.83-.56-.61-.06-1.23.05-1.85.08.14.69.04,1.7.46,2.02,2.15,1.61,4.42,3.05,6.67,4.51.51.33,1.11.53,1.6.99-1.81-.14-3.46-.16-5.16-1.45-3.08-2.35-6.59-4.13-9.86-6.23-1.37-.88-3.28-.09-4.43-1.57-.04-.05-.66.2-.8.43-.14.24-.13.74.03.93.8.91,1.67,1.75,2.3,3.06-1.6-.36-3.2-.73-5.4-1.23,3.79,6.08,8.9,9.31,15.09,11.58-1.52,1.02-2.76.58-4.09-.02-2.13-.96-4.31-1.78-6.45-2.7-.38-.16-.97-.43-1.01-.71-.28-2.04-1.99-2.59-3.45-3.19-2.97-1.22-4.68-3.81-6.75-5.96-3.56-3.7-6.79-7.6-8.92-12.47-1.07-2.45-1.95-4.88-2.74-7.41-1.6-5.07-2.31-10.29-2.26-15.53.05-5.76.56-11.54,1.19-17.27.25-2.28,1.35-4.47,2.07-6.69.18-.53.57-1.03.6-1.56.22-4.31,2.9-7.02,6.02-9.48.1.15.33.37.29.44-1.78,3.16-2.71,6.57-3.35,10.13-.63,3.5-1.79,6.9-2.46,10.39-.92,4.82-1.88,9.66-1.41,14.64.15,1.67.03,3.36.11,5.05.31,7.09,2.91,13.28,7.48,18.66,1.31,1.55,1.38,1.5,4.85,1-.68-1.47-1.38-2.81-1.94-4.22-.58-1.47-.88-3.04-1.51-4.47-2.66-6.04-3.55-12.45-4.02-18.95-.07-.89-.13-1.79-.25-2.67-.33-2.42-.17-2.67,2.64-3.65.72,2.53-.37,5.47,1.91,7.9.27-.97.5-1.8.82-2.96.76.83,1.34,1.47,2.03,2.23.18-.79.34-1.49.62-2.73.68,1.03,1.42,1.66,1.51,2.38.63,4.59,3.54,8.19,5.2,12.32.82,2.06,1.99,3.98,3.08,5.92,3.22,5.74,8.46,9.38,13.71,13,1.84,1.27,3.67,2.58,5.53,3.82,2.18,1.46,4.63,2.14,7.21,2.57,3.29.56,6.46,1.86,9.91,1.48.34-.03.72.38,1.23.66-4.49,3.33-8.92,4.26-14.22,2.36ZM568.26,303.12c-.6,4.65-1.64,9.25-3.9,13.45-2.11,3.93-4.33,7.81-6.33,11.79-1.35,2.66-3.37,4.69-5.5,6.67-2.13,1.98-4.12,4.13-6.4,5.91-2.63,2.06-5.41,4.01-8.32,5.64-3.95,2.22-8.26,3.88-12.46,5.4-5.1,1.86-10.33,3.92-16.19,3.44-4.65-.38-9.39.63-14.1.66-3.09.02-6.26-.31-9.27-1-4.71-1.07-8.95-3.36-13.18-5.7-6.83-3.77-11.8-9.39-15.24-16.07-2.56-4.97-5.36-10.03-6.3-15.71-.42-2.54-.67-5.11-.89-7.68-.31-3.67-.87-7.37-.68-11.03.22-4.33,1.2-8.62,1.71-12.94.85-7.25,4.74-13.36,7.52-19.85,2.7-6.29,3.16-12.32.22-18.54-.28-.6-.37-1.29-.61-2.15.49-.1.99-.18,1.48-.3.43-.1.86-.23,1.42-.39.12.18.33.4.43.67,1.06,2.81,2.13,5.61,3.15,8.44.22.62.41,1.3.39,1.95-.2,5.78-1.29,11.27-4.3,16.38-1.21,2.05-1.63,4.6-2.17,6.97-.19.83.22,2.57.55,2.62,1.28.21,1.37-1.04,1.64-2.02.32-1.12.8-2.2,1.21-3.3.22.06.45.11.68.17,0,.49-.07.98.01,1.45.2,1.16.94,1.21,1.68.57.57-.5,1.1-1.17,1.38-1.87,1.44-3.53,2.83-7.07,4.15-10.64,1.48-4.04.56-8.2.16-12.24-.43-4.32-1.45-8.6-4.06-12.29-.12-.17.14-.6.34-1.39,1.19,2.11,1.89,4.15,3.25,5.57,1.4,1.46,3.43,2.32,5.37,3.56-.74,1.06-1.48,2.11-2.44,3.48,1,.2,1.71.44,2.42.45.83.02,1.56-.11,1.54,1.13,0,.3.73.91,1.03.86,1.18-.21,2.44-.42,3.44-1.02,1.14-.68,1.72,1.88,2.9.24.71-.97,1.95-1.55,2.71-2.5,3.32-4.19,7.43-7.31,12.2-9.7,1.74-.87,3.09-2.51,4.65-3.76.93-.75,1.91-1.44,3.14-2.36-.35,3.4-1.27,5.94-3.47,8.19-2.79,2.87-5.01,6.28-7.78,9.18-4.88,5.13-2.08,9.71,2.84,12.33.57.3,1.2.48,2.06.81-.94,1.57-2.08,3.39-.37,4.52,1.98,1.31,3.68,3.21,6.8,2.59,3.03-.6,4.78-2.28,7.01-4.1,5.16-4.19,10.31-8.58,16.88-10.7,1.88-.61,3.54-1.91,5.35-2.79,1.46-.71,2.73-.45,3.86.89,1.45,1.71,3.11,3.23,4.64,4.88.53.56.98,1.22,1.35,1.9.64,1.17.29,1.99-1.09,2.08-2.91.18-5.4,1.42-7.75,3-2.85,1.92-5.53,4.18-8.57,5.74-3.46,1.77-7.19,3.07-10.89,4.31-2.74.91-4.84,2.65-6.21,4.91-1.02,1.68-.67,3.96.41,5.8.79,1.35,1.67,2.67,2.65,3.89.45.57,1.16,1.06,1.85,1.29,1.22.42,2.53.55,3.77.92,1.9.56,2.07.95,1.2,2.72-.8,1.62-1.67,2.82-3.96,2.73-4.12-.17-6.89,2.53-8.95,5.65-1.86,2.82-2.85,6.19-1.74,9.53,1.37,4.13,4.06,6.88,9.41,7.17,4.82.27,9.31-1.21,13.43-3.53,1.96-1.1,3.87-2.63,3.57-5.61-.12-1.18,1.07-2.44,1.29-3.72.33-1.85.36-3.76.42-5.64,0-.29-.59-.89-.8-.84-.45.1-.9.46-1.23.83-.19.21-.12.64-.17.97-.64,4.75-1.31,6.05-5.46,9.44.35-1.02.78-2.02.99-3.06.08-.42-.2-1.2-.54-1.35-.35-.16-1.13.07-1.42.4-1.19,1.32-2.16,2.84-3.4,4.11-3.19,3.27-7.47.87-9.91-1.83-2.08-2.31-1.6-6.92,1.22-8.69,3.77-2.37,7.88-3.73,12.47-1.82.86.35,2.36-.14,3.25-.73,1.76-1.16,3.31-2.65,4.94-4.02,3.8-3.18,8.23-4.73,13.09-5.47,1.9-.29,4.46,0,5.16-2.8,1.51-.2,3.14-.87,4.48-.49,2.37.68,4.7,1.26,7.16,1.55,2.42.29,3.3,1.37,3.47,3.77.18,2.69.6,5.43.27,8.07ZM581.18,281.05c-.29,3.78-.83,7.54-1.31,11.3-.19,1.44-.47,2.87-.69,4.31-.25,1.66-1.11,2.17-2.81,1.93-2.32-.32-3.01-1.08-2.3-3.21.21-.63.63-1.19.95-1.78,1.65-3.12,1.07-4.17-2.45-4.55-.17-.02-.31-.26-.52-.45.67-.92,1.36-1.86,2.26-3.09-3.85.55-7.28,1.04-11.13,1.59.41-.84.7-1.43.94-1.91-1.5-.22-3.01-.55-4.53-.64-.97-.05-2.21-.07-2.9.46-1.29.99-2.56.93-4.05,1-4.59.22-8.79,1.84-12.59,4.39-6.02,4.04-12.37,4.98-19.36,2.82-2.3-.71-4.5-1.2-5.91-3.28-.56-.83-1.31-1.74-1.36-2.65-.08-1.13.1-2.77.83-3.36,1.8-1.46,3.86-2.89,6.05-3.55,5.96-1.79,11.28-4.6,16.38-8.17,5.41-3.78,11.59-5.1,18.24-3.68,2.83.6,5.72.88,8.59,1.31,1.09.16,2.15.08,2.32-1.24.16-1.33-.87-1.67-1.96-1.79-1-.11-2.02-.14-3-.34-1.16-.23-2.32-.55-3.45-.91-1.05-.33-2.05-.91-3.12-1.12-2.74-.52-3.47-1.39-3.2-4.18.04-.42.09-1.17-.07-1.22-1.71-.62-1.63-2.73-2.56-3.43-1.62-1.22-.76-1.73-.06-2.58.42-.52,1.04-.95,1.3-1.53.23-.52.35-1.48.06-1.76-.36-.33-1.42-.44-1.79-.15-3.79,2.96-8.43,2.72-12.8,3.46-.42.07-.88-.08-1.31-.16-2.22-.44-4.17.08-5.98,1.46-2.11,1.61-4.28,3.14-6.49,4.62-3.82,2.56-7.56,5.58-12.33,5.88-4.6.29-9.2-.22-12.9-3.54-1.26-1.12-1.18-3.93.19-5.49,1.18-1.34,2.44-2.61,3.6-3.97,1.06-1.25,2.12-2.51,3.04-3.86,1.82-2.68,3.61-5.39,5.29-8.17.97-1.6,1.66-3.36,2.56-5,.32-.57.81-1.32,1.34-1.45,3.36-.82,6.29-2.81,9.94-2.94,5.33-.2,10.66-.59,15.89-2.02,3.01-.83,6.18-1.12,9.3-1.54,3-.41,5.04,1.17,6.07,3.77,1.34,3.41,2.5,6.9,3.41,10.45,1.09,4.21,1.74,8.53,2.73,12.77,1.14,4.82,4,8.49,8.23,11,1.2.71,2.71,1.05,4.12,1.24,3.05.4,5.17,1.78,6.34,4.73.68,1.74,1.99,3.25,2.53,5.02.51,1.64.61,3.5.48,5.23Z"/>
      <path d="M473.48,180.06h0s-.02,0-.03,0h0s.02,0,.03,0Z"/>
      <rect x="385.71" y="205.21" height="0" transform="translate(-42.23 117.17) rotate(-16.39)"/>
      <path d="M398.93,473.92c3.96-3.25,7.61-6.94,11.05-10.73,3.35-3.69,6.65-7.49,9.32-11.74,1.48-2.35,2.95-4.72,4.39-7.1,1.37-2.28,3.04-4.46,3.99-6.9,3.45-8.87,5.4-18.17,7.53-27.41.39-1.72.15-3.58.56-5.3,1.27-5.29,1.33-10.66.66-15.94-.67-5.27-1.1-10.64-3.01-15.73-.85-2.28-.84-4.88-1.68-7.17-2.4-6.53-5.29-12.87-8.63-18.98-2.35-4.3-4.72-8.56-7.63-12.55-2.42-3.3-4.67-6.71-7.44-9.73-1.43-1.56-2.89-3.1-4.41-4.58-2.16-2.09-4.22-4.31-6.61-6.1-3.57-2.66-7.32-5.09-11.1-7.44-2.27-1.42-4.69-2.64-7.14-3.7-2.56-1.11-5.24-1.92-7.86-2.87-4.31-1.56-8.61-3.2-12.95-4.66-1.98-.67-4.04-1.29-6.1-1.45-5.57-.42-11.15-.59-16.73-.85,0,.05,0,.1-.01.15-2.35,0-4.75-.27-7.06.06-4.04.58-8.06,1.38-12.02,2.37-5.3,1.33-10.53,2.89-15.77,4.45-1.38.41-2.64,1.21-3.96,1.82-3.34,1.54-6.85,2.79-9.99,4.67-4.69,2.79-9.2,5.9-13.62,9.1-3.63,2.62-7.39,5.23-10.41,8.47-3.82,4.1-6.96,8.83-10.39,13.31-1,1.31-1.93,2.68-2.97,3.96-3.46,4.22-5.09,9.4-7.34,14.23-1.48,3.19-2.62,6.55-3.77,9.9-1.42,4.12-2.84,8.15-3.36,12.51-.77,6.34-1.75,12.65-1.66,19.07.02,1.77-.6,3.61-.3,5.3.55,3.11,1.05,6.16.49,9.31-.08.5.19,1.08.35,1.61,1.64,5.33,3.16,10.7,4.97,15.96,2.06,6.01,4.13,12.07,7.45,17.53,2.33,3.82,4.86,7.56,7.68,11.02,2.93,3.6,6.19,6.97,9.56,10.15,3.13,2.96,6.86,5.31,9.87,8.38,4.61,4.69,10.45,7.28,16.11,10.14,4.28,2.17,8.86,3.75,13.38,5.42,2.73,1,5.59,1.62,8.36,2.51,5.98,1.92,11.95,3.71,18.35,2.47.54-.1,1.16-.13,1.67.04,3.65,1.23,7.3.24,10.93,0,2.76-.19,5.5-.72,8.25-1.12,1.85-.27,3.72-.53,5.56-.92,2.08-.44,4.09-1.24,6.18-1.5,5.65-.72,10.31-4.26,15.82-5.33.1-.02.2-.09.3-.16,2.86-1.73,5.78-3.38,8.56-5.22,4.26-2.82,8.66-5.51,12.59-8.74ZM426.34,413.7c-.59,4.06-1.08,8.17-2.06,12.15-.88,3.57-2.53,6.95-3.55,10.49-2.43,8.43-8.44,14.33-14.16,20.45-.22.24-.54.38-1.21.83-.68-1.98-1.3-3.81-1.94-5.65-.25-.73-.54-1.46-.81-2.2-.63-1.77-1.19-3.58-1.89-5.33-1.32-3.33-2.32-6.87-4.2-9.86-1.89-3.02-2.35-6.44-3.82-9.53-2.19-4.61-3.3-9.71-6.22-14-.37-.54-.5-1.24-.73-1.88-1.19-3.3-1.32-3.36-4.38-1.92-2.22,1.05-4.43,2.14-6.69,3.09-1.93.8-4.04.35-5.34-.96-3.99-4.02-8.95-6.95-12.57-11.37-.56-.68-1.31-1.23-2.03-1.75-2.26-1.61-2.28-1.59-1.41-4.93,1.67.93,3.35,1.71,4.86,2.73,4.07,2.75,8.13,5.54,12.07,8.47,1.2.9,2.11,1.02,3.32.26,2.47-1.56,4.95-3.07,7.45-4.57,1.8-1.09,3.64-2.12,5.68-3.3,1.07,1.85,2.09,3.44,2.93,5.13,4.48,9.02,9.23,17.87,14.83,26.25,2.75,4.12,5.15,8.47,7.95,13.12,1.36-1.98,2.87-3.74,3.89-5.74,1.83-3.58,3.49-7.27,4.98-11.01.87-2.16,1.35-4.5,1.84-6.79.45-2.08.98-4.08,2.15-5.85.3.05.6.1.9.15.06,1.17.3,2.37.14,3.51ZM373.14,428.16c-.97-.71-1.69.67-1.54,1.48.5,2.67-1.03,3.81-3.08,4.79-1.11.53-2.1,1.31-3.13,1.98-2.18,1.41-2.61,1.23-3.54-1.15-.87-2.21-1.61-4.42-1.15-6.83.14-.73.35-1.49.72-2.13.9-1.54,1.55-1.55,2.8-.44.97.86,1.99,1.73,3.14,2.28,1.72.83,2.89.12,2.87-1.81-.02-1.65-.35-3.33-.77-4.94-.42-1.62-1.08-3.17-1.69-4.73-.15-.36-.49-.8-.83-.89-.54-.14-1.55.18-1.67-.05-.69-1.35-1.36-2.76-1.67-4.22-.27-1.27-.06-2.65-.06-4.33,2.82.79,3.97,2.24,4.22,4.89.54,5.56,3.52,8.64,8.19,9.12,3.11.32,5.32-1.12,7.1-3.44.8-1.05,1.51-2.17,2.62-3.78,1.05,2.56,1.95,4.57,2.69,6.63.64,1.77.14,3.65-1.24,4.61-3.11,2.15-6.01,5.34-10.53,3.5-1.05-.43-2.23.36-3.46-.53ZM366.53,450.32c-.37.13-1.34-.37-1.44-.74-.78-2.77-1.47-5.57-2.07-8.39-.31-1.47.95-2,1.99-2.23,2.91-.65,5.45-1.76,7.3-4.24.8-1.07,1.6-.48,1.92.48.44,1.34.66,2.75.97,4.13,1.05,5.6-4.8,9.63-8.66,11ZM333.13,399.63c-.14-.42-.38-.81-.65-1.17-3.32-4.46-3.14-9.44-2.15-14.54.02-.11.06-.22.09-.32.39-1.32-.25-3.65,1.48-3.66,1.48-.01,3.17,1.38,4.42,2.54,3.2,2.99,4.25,6.91,4.12,11.26-.61,4.05-1.3,8.1-5.89,9.87-.9.35-1.72.74-2.21-.46-.13-.31.01-1.06.05-1.06,2.68-.1,1.08-1.5.76-2.47ZM342.22,437.88c-1.84,0-3.68.21-5.53.35-.08-.22-.15-.43-.23-.65,3.2-2.33,6.4-4.67,9.92-7.23,2.06,3.99-.19,8.42,2.09,12.12-2.35.59-4.61.86-6.61,1.72-4.03,1.72-8.15.93-12.27,1.03-7.24.18-13.7-2.81-20.38-4.84-3.75-1.15-6.49-3.9-7.92-7.65-.37-.96-.29-2.16-.19-3.22.11-1.11.85-2.24.69-3.27-.57-3.59,2.4-4.46,4.56-6.8.39,3.51.25,6.28-.82,9.02-1.39,3.6-.56,5.83,2.96,7.58,5.01,2.49,10.1,4.83,15.95,4.21.54-.06,1.15-.02,1.65.17,4.59,1.79,9.3.68,13.95.54.86-.03,1.74-.44,2.53-.84.52-.26.88-.82,1.31-1.24-.55-.35-1.1-.98-1.66-.98ZM300.01,394.6c-.6-5.29-1.18-10.58-1.73-15.88-.04-.39.18-1.15.32-1.15.48-.04,1,.13,1.47.32,2.71,1.08,1.96,3.76,2.51,5.77.46,1.69.27,3.54.58,5.28.66,3.73,1.44,7.44,2.24,11.14.12.54.67,1,1.02,1.5.41-.49,1.09-.95,1.16-1.49.25-1.76.45-3.56.34-5.32-.2-3.2-.64-6.39-1.06-10.34,3.17,3.3,5.5,6.12,6.11,10.19.26,1.73,1.79,3.27,2.94,5.24-4.69,2.82-9.04,6.39-14.8,8.59.13-4.16-1.61-7.75-.64-11.61.17-.67-.39-1.48-.48-2.24ZM314.34,387.43c.46-2.73,1.23-5.41,1.89-8.09,5.38.93,7.56,7.46,4.83,12.82-.7-1.75-1.27-3.16-1.84-4.57-.55-1.37-.25-3.23-2.61-3.97-.18,2.04-.35,3.95-.54,5.99-1.62-.13-1.83-1.58-1.73-2.18ZM315.22,369.3c.76-2.49.79-4.94.25-7.28-1.1-4.88-.22-9.51,1.68-13.92.53-1.25,2.2-2.25,3.57-2.85,2.97-1.29,6.09-2.25,9.14-3.36.6-.22,1.16-.57,2.05-1-2.69-1.66-5.33-1.73-7.97-1.53-5.33.4-10.09,2.76-14.84,4.87-2.91,1.29-5.41,3.58-7.98,5.56-1.59,1.23-2.45,2.95-2.07,5.04.38,2.09.76,4.19,1.34,6.23.8,2.8.88,2.78-1.64,4.02-.29.15-.61.22-.89.33-4.31-6.21-2.55-13.18,2.02-17.25,4.43-3.95,9.22-6.97,14.75-8.89,2.95-1.03,5.97-2.29,9.02-2.47,3.96-.24,7.98-.98,11.97-.12,2.22.48,3.13,1.41,3.16,3.68.02,1.79-.24,3.59-.37,5.39-.16,2.09-.56,4.2-.41,6.26.38,5.48,6.44,10.63,11.91,10.17,1.16-.1,2.5-.54,3.36-1.28,2.08-1.78,3.99-3.77,5.84-5.79,3.33-3.63,3.75-11.21.96-15.44-.17-.26-.25-.59-.63-1.53,3.37,1.39,6.46,2.08,8.76,4.51,4.43,4.68,3.65,10.18,2.5,15.73-.08.39-.4.84-.74,1.06-1.38.89-2.81,1.71-4.58,2.77.57-2.7,1.2-5.07,1.52-7.47.24-1.74.11-3.54.06-5.31-.01-.4-.29-.9-.61-1.16-.65-.54-1.67-1.48-2.07-1.29-.77.37-1.53,1.34-1.73,2.2-.31,1.37-.46,2.92-.16,4.27,1,4.44-1.25,8.3-2.08,12.39-.23,1.16-1.39,2.35-2.44,3.09-3.28,2.31-6.7,4.4-10.08,6.56-.26.17-.63.19-1.19.35-.28-1.21-.38-2.43-.84-3.51-.82-1.94-1.85-3.79-2.8-5.68-.71-1.42-1.62-2.18-3.18-1.04-.91.66-1.47.07-1.85-.67-.41-.8-.56-1.75-1.06-2.47-.82-1.16-1.75-2.26-2.78-3.24-1.03-.97-2.05-.7-2.82.47-1.71,2.57-3.43,5.14-5.18,7.75-.05-.02-.34,0-.43-.13-1.94-2.9-2.36-2.94-4.54-.31-2.03,2.46-3.66,5.1-3.59,8.43-.81.04-1.58-.14-2.1.14-1.5.79-2.32-.18-3.18-1.03-.55-.54-.85-1.48-1.48-1.79-5.27-2.59-5.21-7.66-5.7-12.37-.27-2.63.01-5.31.06-7.97,0-.22.05-.47.17-.64,1.77-2.4,3.89-4.37,6.85-5.91-1.57,5.94.35,20.42,3.06,23.43ZM347.51,383.99c-.06-1.09-.57-2.14-.7-3.23-.06-.46.34-.96.53-1.44.43.24.89.43,1.28.73.25.19.53.53.55.82.29,3.94,1.66,7.81.72,11.84-.4,1.71-.97,3.14-2.56,4.12-1.52.93-2.88,2.12-4.3,3.19,2.85-5.06,4.79-10.22,4.49-16.02ZM340.5,382.78c-1.12-1.65.23-2.96.52-4.45.43-2.13.42-4.36.59-6.54,2.87,1.45,3.74,4.23,1.99,7.34-.77,1.37-2.06,2.44-3.11,3.65ZM333.03,368.45c-.1-1.55.88-3.36-1.03-4.58-.17-.11.06-1.32.43-1.67.73-.69,1.02.05,1.42.65.72,1.11,1.76,2.03,2.41,3.17.72,1.27,1.15,2.65-.22,3.95-.95.89-1.73,1.96-2.98,3.41,0-2.08.08-3.51-.02-4.93ZM325.92,380.55c-.39-2.88-.72-5.34-1.06-7.8.22-.08.43-.17.64-.26,1,1.79,2.29,3.49,2.91,5.41.46,1.42-1.25,1.74-2.49,2.65ZM321.11,405.63c.87-.84,1.95-1.45,2.8-2.07,1.5,1.2,2.86,2.28,4.21,3.37.16.13.32.35.34.54.41,4.09.84,8.18,1.16,12.28.04.48-.49,1.31-.92,1.45-2.1.67-3.95,1.9-6.38,1.82-3.59-.11-6.47,2.19-9.58,3.67-.49.24-.96.54-1.64.95-1.24-4.3-.16-8.14.38-11.99.08-.56.68-1.09,1.12-1.54,2.81-2.85,5.62-5.69,8.5-8.48ZM331.2,437.21c.14.88.08,1.67-1.09,1.49-.67-.11-2.15.21-1.15-1.41.07-.12-.32-.61-.58-.82-.43-.35-.99-.54-1.4-.9-1.01-.88-1.46-3.21-.51-3.92.9-.67,2.23-.82,3.4-1.02.21-.04.74.77.82,1.24.2,1.09.22,2.22.31,3.33-.02,0-.02,0-.04,0,.08.67.13,1.34.23,2ZM340.6,403.44c4.47-1.11,8.1-3.48,11.09-7.13,2.2,2.01,4.17,3.8,6.13,5.59,1.14,1.05,1.78,2.14,1.21,3.85-.32.99-.22,2.31.16,3.3,1.25,3.26,1.24,6.55.6,10-2.23-2.63-2.55-5.81-2.92-8.99-.34-2.98-1.1-3.28-3.56-1.47-1.89,1.38-3.66,2.92-5.59,4.23-1.64,1.11-3.42,2.01-5.15,2.99-.92.52-1.5.12-1.76-.8-.73-2.58-1.52-5.15-2.1-7.76-.41-1.85.29-3.41,1.89-3.81ZM357.85,388.71c2.97-.24,1.32,1.81,1.91,3.55-2.29-1.37-3.97-2.26-5.51-3.36-.65-.46-1.22-1.32-1.39-2.1-1-4.53.08-6.14,5.42-7.85-.27,1.25-.61,2.29-.71,3.36-.16,1.75-.21,3.52-.22,5.28,0,.39.35,1.14.5,1.13ZM395.19,396.07c.17,2.54.26,5.07-.96,7.87-2.26-3.98-4.66-7.61-6.39-11.55-.78-1.77-.32-4.14-.24-6.22.2-5.51-1.57-10.07-6.22-13.26-2.79-1.92-5.96-1.59-8.7-.3-2.38,1.12-4.51,3.01-4.15,6.31.09.84-.47,1.74-.54,2.63-.28,3.75-.47,7.51-.73,11.26-.11,1.51-.32,3.02-.51,4.77-.94-.7-1.67-1.17-2.33-1.74-1.79-1.55-2.54-3.25-1.98-5.85.92-4.26,1.3-8.63,1.75-12.97.17-1.7.92-2.57,2.43-3.25,1.83-.81,3.51-1.96,5.29-2.91,2.82-1.51,5.69-2.92,8.48-4.49.93-.53,1.32-.22,1.93.43,3.9,4.18,7.78,8.37,11.79,12.43,1.46,1.48,1.49,3.24,1.45,4.99-.05,2.29-.47,4.58-.56,6.88-.08,1.66.08,3.32.18,4.98ZM416.43,361.46c1.37-.7,2.75-1.37,4.14-2.01,1.14-.53,1.63.16,1.97,1.13,1.24,3.59,2.73,7.13,3.67,10.8,1.13,4.43,1.91,8.96,2.63,13.48.39,2.42.41,4.91.45,7.36.02.96-.09,1.97-1.39,2.42-1.23.42-1.53-.91-1.96-.96-1.62-.18-1.65-1.13-1.7-2.29-.13-2.59-.41-5.16-.44-7.74-.04-2.62-.43-5.07-1.77-7.42-.82-1.43-1.68-1.99-3.23-1.57-2.77.76-5.53,1.56-8.32,2.25-1.52.37-3.08.53-4.63.79-2.2.37-4.42.65-6.59,1.16-1.62.38-2.78.03-3.91-1.18-3.25-3.51-6.53-6.99-9.89-10.4-1.01-1.02-2.28-1.78-3.44-2.64-1.26-.94-2.42-.69-3.73.07-7.36,4.26-14.74,8.46-22.15,12.64-1.35.76-2.81,1.31-4.23,1.97-1.14-2.97-1.1-2.92.94-4.35,1.08-.76,1.97-1.77,3.03-2.57,4.95-3.75,9.91-7.49,14.91-11.19,3.05-2.26,6.15-4.44,9.26-6.6,2.49-1.73,2.44-1.61,4.81.39,3.43,2.89,7,5.61,10.46,8.46,1.64,1.35,3.17,2.82,4.74,4.25,1,.9,1.94,1.19,3.3.46,4.31-2.33,8.7-4.51,13.07-6.73ZM385.34,330.8c3.64,1.46,6.52,3.75,8.62,7.05.46.73,1.04,1.42,1.68,2.01,3.5,3.2,6.63,6.71,8.83,10.95.57,1.11.79,2.41,1.16,3.62-.23.16-.47.31-.71.47-.65-.49-1.44-.87-1.93-1.48-1.52-1.91-2.89-3.94-4.39-5.87-3.32-4.26-7.41-7.77-11.54-11.2-2.46-2.04-2.57-1.9-1.71-5.53ZM363.51,307.54c3.78,1.72,7.56,3.44,11.27,5.32,4.39,2.22,8.63,4.71,12.3,8.03,5.76,5.22,11.81,10.17,16.29,16.64,1.71,2.47,3.34,5,4.93,7.54.43.69.61,1.52.91,2.28-.22.16-.43.32-.65.49-2.38-2.25-4.91-4.36-7.11-6.77-3.55-3.88-6.84-7.99-10.34-11.92-1.09-1.24-2.4-2.02-4.28-2.26-1.77-.22-3.49-1.42-5.06-2.45-3.64-2.4-7.18-4.95-10.74-7.47-.54-.38-1.24-.84-1.38-1.4-.78-3.03-3.41-3.65-5.76-4.63-1.6-.67-3.25-1.23-4.87-1.83,1.06-2.53,2.75-2.36,4.51-1.56ZM311.01,328.83c-.3-.12-.54-.37-1.05-.73,1.02-1.12,1.99-2.16,2.94-3.22,1.69-1.91,3.46-3.77,5.02-5.79,2.56-3.28,9.23-5.76,13.66-3.62.75.37,1.39,1.08,1.93,1.74.78.95,1.3,2.15,2.17,2.98,1.2,1.15,2.43,1.73,4.48,1.37,2.86-.49,4.78-1.88,6.77-3.72,4.15-3.84,11.53-3.04,14.05,1.55.87,1.58.9,3.63,1.23,5.48.19,1.07-.21,2.58.39,3.19,1.01,1.03,2.53,1.72,3.96,2.18,1.92.62,3.96.83,5.92,1.33,2.39.62,4.34,4.05,3.71,6.32-.63,2.25-4.51,3.84-6.26,2.34-2.56-2.18-5.34-3.44-8.71-3.89-2.4-.32-4.75-1.32-7.01-2.29-.73-.32-1.29-1.42-1.57-2.29-.33-1.01-.5-2.2-1.78-1.96-1.49.27-1.52,1.73-1,2.7.98,1.84,2.24,3.55,3.47,5.24.38.53,1.02.88,1.59,1.25,5.83,3.84,5.2,11.52.52,16.01-1.31,1.26-5.51,1.54-7.39.58-4.17-2.14-5.88-5.41-5.4-10.12.15-1.43.32-2.89.15-4.31-.54-4.67-2.8-6.43-7.59-6.85-6.86-.6-13.41.8-20.06,2.15-5.05,1.04-8.93,3.95-12.92,6.69-2.7,1.86-5.17,4.26-7.2,6.84-1.55,1.96-2.47,4.52-3.24,6.95-.51,1.64-.64,3.52.57,5.18.5.69.59,1.68.89,2.52,1.18,3.36,1.99,3.76-2.1,4.93-.82.23-1.55.81-2.85,1.51.5-3.89-.73-6.46-3.35-8.47-4.34-3.31-5.32-9.18-2.46-13.74,1.66-2.66,3.94-3.88,7.07-3.44.55.08,1.12.28,1.65.21,1.97-.25,2.6-1.8,1.4-3.41-.6-.81-1.38-1.5-1.91-2.34-1.17-1.82-1.36-3.69-.26-5.71,1.44-2.65,3.4-4.81,6.06-6.14,2.28-1.14,4.58-.11,6.74.8,1.64.7,3.19,1.61,4.83,2.31.7.3,1.52.38,2.29.4,1,.03,2.19.06,2.42-1.26.22-1.32-1.02-1.2-1.8-1.52ZM242.07,370.22c.52-1.35.85-2.78,1.27-4.18,1.42-4.66,4.04-8.73,6.31-12.98,3.18-5.93,7.28-11.16,11.76-16.15,2.81-3.14,5.28-6.59,8.04-9.76,1.17-1.34,2.65-2.43,4.1-3.47,4.62-3.32,9.24-6.62,13.96-9.78,1.45-.97,3.27-1.36,4.84-2.18,4.5-2.37,9.22-3.88,14.75-4.26-1.47,2.02-3.44,2.55-5.17,3.3-2.96,1.28-6.08,2.21-9.04,3.49-1.5.65-2.75,1.83-4.19,2.65-4.4,2.51-8.59,5.25-12.05,9.02-2.5,2.72-5.01,5.45-7.73,7.95-1.85,1.71-2.48,3.37-1.04,5.55,1.69-.06,2.25-2.81,4.78-2.1-1.33,1.88-2.48,3.61-3.75,5.24-2.47,3.19-4.94,6.39-7.55,9.46-1.33,1.57-3.15,2.6-5.31,2.21-1.07-.19-1.65-.15-2.11.91-1.22,2.85-2.51,5.66-4.04,9.07,1.4-.3,2.14-.37,2.81-.64.72-.29,1.33-.86,2.05-1.15,3.87-1.53,4.56-1.39,6.9,2.11,2.92,4.37,5.64,8.87,8.51,13.26.85,1.29,1.85,2.53,2.99,3.56.38.35,1.55.24,2.1-.09,3.76-2.22,7.41-4.62,11.17-6.84,4.11-2.43,8.3-4.71,12.45-7.06.95-.54,1.64-.58,2.68.22,3.91,3,7.46,6.35,10.7,10.04.44.5.87,1.36.74,1.93-.44,2.04-1.13,4.02-1.66,5.81-3.19-3.12-6.34-6.28-9.57-9.35-1.44-1.37-3.11-1.4-4.92-.3-.48.29-1.01.54-1.42.91-5.77,5.28-12.29,9.57-18.63,14.11-.8.58-1.4,1.46-2.43,2.56-2.15-2.83-4.07-5.28-5.91-7.79-2.69-3.66-5.41-7.3-7.93-11.08-1.05-1.58-2.11-1.98-3.6-.99-4.36,2.9-8.67,5.86-12.99,8.81-1.32.91-2.61,1.87-4.13,2.97-.4-5.39.41-10.27,2.24-15.02ZM296.71,389.3c.02,1.99-1.14,3.68-3.12,4.4-1.82.65-3.61.05-5.09-.97-1.72-1.18-1.86-6.05-.08-7.77,2.05-1.97,4.44-3.58,6.69-5.35.27.18.54.35.81.53.29,3.05.77,6.11.8,9.17ZM279.77,422.3c-3.92-1.24-4.41-.78-4.28,3.28.25,7.49.22,14.99.58,22.46.25,5.26,1,10.5,1.46,15.75.13,1.44.02,2.89.02,4.97-4.44-2.27-8.17-4.43-11.6-7.12-3.93-3.08-6.32-7.48-9.62-11.09-6.41-7.03-8.98-15.94-12.05-24.53-1.51-4.22-1.95-8.94.09-13.65.32.85.72,1.67.93,2.54,1.67,6.92,3.58,13.81,6.53,20.29,1.6,3.51,4.04,6.68,6.31,9.86,1.79,2.51,3.91,4.79,6.34,7.73,1.22-14.23,1.25-27.95,3.01-41.91,2.06.56,3.86.99,5.63,1.54,5.13,1.61,10.25,3.25,15.36,4.93,1.51.49,2.59.23,3.97-.76,2.98-2.13,6.25-3.86,9.42-5.7,4.34-2.51,8.72-4.98,13.08-7.46.88-.5,1.79-.94,2.65-1.47.96-.59,1.9-.38,2.32.46.23.45-.18,1.5-.62,1.96-1.57,1.59-3.28,3.04-4.95,4.53-3.6,3.21-7.22,6.38-10.78,9.62-2.47,2.25-4.91,4.54-7.29,6.87-1.55,1.52-2.99,2.32-5.29,1.22-3.2-1.53-6.61-2.64-9.93-3.92-.42-.16-.85-.26-1.28-.39ZM338.4,484.4c-1.07.3-2.19.43-3.3.56-1.05.12-2.51-.41-2.7,1.19-.24,1.98,1.87.48,2.58,1.72-.88.24-1.74.62-2.61.68-3.45.26-6.95.81-10.36.52-4.2-.35-8.36-1.32-12.49-2.23-2.78-.61-5.59-1.31-8.19-2.44-3.04-1.32-5.9-3.09-8.76-4.8-1.57-.94-2.94-2.2-4.47-3.21-1.63-1.06-1.98-2.87-3.32-4.08.2-.16.39-.33.59-.49,3.11,1.84,6.28,3.59,9.31,5.57,2.89,1.89,5.56,3.85,9.29,4.17,3.11.27,6.13,1.63,9.27,2.26-4.71-2.46-9.83-4.16-13.34-8.74,2.74.81,5.48,1.6,8.22,2.44.94.29,1.87.64,2.77,1.05,6.35,2.95,13.19,2.86,19.95,3.3,3.3.21,6.59.56,10.08,1.38-.83.39-1.64.9-2.51,1.14ZM299.86,468.85c1.62-.93,2.76-.32,3.79.02,5.08,1.67,10.07,3.62,15.19,5.09,3.41.98,7.01,1.3,10.52,1.94.49.09.95.34,1.86.68-2.31,1.5-4.45,1.58-6.46,1.18-4.05-.81-8.09-1.75-12.04-2.95-3.27-1-6.42-2.38-9.56-3.73-1.07-.46-1.98-1.32-3.29-2.23ZM346.95,457.28c-5.77.56-11.4,2.38-17.35,1.31-4.03-.72-8.21-.64-12.28-1.18-2.2-.29-4.41-.94-6.47-1.78-5-2.04-10.02-4.46-12.63-9.38-1.32-2.5-2.63-5.78-.61-8.9.47-.72.87-1.5,1.4-2.43,1.58,2.44,2.97,4.95,5.59,6.15,4.46,2.04,9.04,3.72,13.8,5.01,7.05,1.92,14.23,1.39,21.37,1.3,1.92-.03,3.82-1.06,5.74-1.62.64-.19,1.28-.35,2.34-.65.25,3.61.48,7,.73,10.38.09,1.2-.73,1.69-1.62,1.78ZM374.84,482.34c-1.12.7-2.52.94-3.78,1.41-1.87.7-3.87,1.2-5.58,2.19-3.8,2.2-7.88,1.29-11.86,1.37-.32,0-.9-.9-.94-1.42-.22-2.87-.32-5.74-.43-8.62-.3-8.05-.59-16.11-.89-24.17-.08-2.11.21-4.32-.35-6.3-1.05-3.7-.02-7.48-.94-11.19-.64-2.56-.43-5.32-.74-7.98-.09-.8-.66-1.55-1.02-2.31-.72.39-1.51.69-2.15,1.19-3.92,3.04-7.81,6.13-12,9.43-.16-.97-.35-1.6-.37-2.23-.23-6.8-.73-13.58-2.05-20.28-.15-.74-.18-1.52-.14-2.27.16-3,.5-3.31,3.32-2.82.5.09,1.16.66,1.29,1.13.85,2.9,1.56,5.84,2.32,8.77.68,2.58,1.45,2.65,3.65,1.13,3.86-2.65,7.89-5.04,12.03-7.65,2.82,4.26,2.68,8.91,3.33,13.43.68,4.71,1.09,9.45,2.57,14.09,1.63,5.1,2.24,10.54,3.38,15.8.92,4.26,1.99,8.48,2.92,12.73.4,1.83.49,3.73.91,5.55.55,2.37,1.28,4.69,1.98,7.18,4.56-1.35,8.46-3.73,12.42-5.98,3.95-2.24,7.94-4.44,11.97-6.7.01.11.19.51.07.64-2.2,2.51-4.12,5.32-7.32,6.76-.5.23-1.07.48-1.42.88-2.71,3.22-6.83,4.11-10.21,6.22Z"/>
      <path d="M197.4,126.82c1.33.23,2.67.35,4.01.48,2.98.29,4.16,1.99,3.52,4.96-.24,1.09-.99,2.31.35,3.27.66-.94,1.41-1.82,1.95-2.82.36-.67.49-1.49.62-2.26.26-1.52-.89-3.72-2.28-4.11-2.14-.6-4.3-1.18-6.49-1.5-1.85-.27-2.39-1.48-2.68-2.94-.32-1.58.24-2.96,1.67-3.74,2.53-1.37,6.38-.59,8.52,1.62,1.01,1.04,1.86,2.29,3.01,3.14,1.43,1.04,1.69,2.19,1.27,3.8-.39,1.5-.3,2.91,1.44,3.69,2.15.97,5.05.63,6.27-.57,2.37-2.34,2.61-5.48,2.84-8.39.68-8.52.52-8.54-4.06-16.02-2.5-4.09-5.68-4.89-9.9-2.39-.91.54-1.66.74-2.35-.14-.73-.94-1.25-1.94.02-2.91.97-.74,1.83-1.75,2.91-2.2,2.14-.89,4.47-1.3,6.59-2.22,2.31-1,4.1-1.26,5.65,1.27.8,1.3,2.28,2.15,3.35,3.31.75.82,1.82,1.77,1.86,2.71.16,3.02,1.84,5.25,3.28,7.65,1.04,1.73,1.21,3.41.47,5.43-1.96,5.34-2.97,11-5.94,15.99-1.16,1.96-.75,2.52,1.34,3.7.49.28.99.53,1.48.8,1.1.6,2,.68,2.93-.48.56-.7,1.57-1.3,2.46-1.42,1.94-.27,2.89-1.3,3.63-3.03.91-2.14,1.26-4.25,1.09-6.56-.13-1.74.97-2.98,2.11-2.86,1.42.15,4.52,3.04,4.52,4.56,0,2.55-.25,5.11-.51,7.65-.26,2.52-1.94,3.67-4.3,3.94-2.53.29-4.28,1.83-5.93,3.56-.88.93-1.32,1.95-.24,2.93.96.87,1.6-.12,2.27-.65,1.99-1.58,3.74-3.4,6.7-3.36.93.01,2.01-1.59,2.79-2.62.59-.77.92-1.8,1.17-2.76,1.17-4.65,2.04-9.3-1.86-13.23-1.52-1.54-3.44-2.69-5.57-2.49-1.86.17-3.72,3.41-3.6,5.54.05,1.01.33,2,.43,3,.15,1.54-.19,2.93-1.56,3.85-1.4.93-2.81,1.86-4.28,2.67-.37.2-1.06.08-1.48-.12-.69-.34-1.28-.88-1.71-1.19,2.01-5.13,3.94-10.13,5.91-15.11,1.5-3.8,1.56-7.31-1.19-10.76-1.35-1.69-2.02-3.92-3.01-5.91-.49-.99-.82-2.08-1.48-2.94-1.15-1.5-2.4-2.96-3.8-4.22-.93-.84-2.32-2-3.31-1.83-5.02.85-10.15,1.5-14.48,4.63-1.8,1.3-2.56,4.36-1.4,6.31,1.61,2.69,3.3,3.13,5.92,1.52.57-.35,1.1-.86,1.72-1.05,1.47-.44,2.95-.43,3.96.96,1.39,1.91,2.84,3.8,3.96,5.87.79,1.44,1.45,3.15,1.48,4.75.05,2.89-.25,5.82-.72,8.68-.23,1.38-1.14,2.66-1.84,3.93-.17.29-.79.56-1.13.49-1.3-.3-2.12-.77-2.64-2.43-.89-2.8-2.22-5.71-4.16-7.86-1.92-2.14-4.62-3.42-8-3.33-4.62.13-7.83,3.13-7.31,7.72.29,2.5,1.3,3.64,3.76,4.07Z"/>
      <path d="M444.14,146.08c1.05.6,2.37.6,3.69-.07h0c-1.32.66-2.64.67-3.69.07Z"/>
      <path d="M416,139.98c-.19,3.34.93,5.35,4.37,6.6,1.82.66,3.26,2.98,4.33,4.85.52.91-.11,2.55-.41,3.82-.25,1.08-.85,2.08-1.13,3.16-.11.41.26.94.41,1.42.46-.24,1.2-.38,1.35-.75.8-1.97,1.66-3.95,2.07-6.01.22-1.1-.06-2.64-.73-3.5-1.34-1.72-3-3.26-4.74-4.59-1.84-1.4-3.65-2.84-3.83-5.23-.22-2.84-.72-5.77,1.19-8.4.9-1.24,1.45-2.74,2.15-4.13.71-1.41,2.43-2.25,3.94-1.82,1.07.31,2.09.79,3.15,1.15q3.23,1.12,3.32,4.82c-.88.04-1.77.08-2.66.13-1.36.08-2.27.75-2.89,1.99-.99,1.99-.86,6.62.8,7.91,1.37,1.06,2.98,2.8,4.91,2.16,3.27-1.1,6.57-2.47,8.12-6.01.98-2.25,2.08-4.48,2.77-6.82,1.02-3.44-1-8.2-4.02-10.17-2.5-1.63-4-4.54-3.27-7.08,1.1-3.8,2.49-7.49,6.94-8.69.63-.17,1.21-.58,1.8-.9,2.38-1.29,3.22-1.23,4.88.85,1.03,1.29,1.84,2.79,2.58,4.28.26.52.2,1.39-.06,1.94-1.21,2.57-2.93,3.05-5.56,1.69-.5-.26-.98-.55-1.47-.83-1.13-.64-1.93-.21-2.52.81-1.13,1.94-.43,7.93,1.11,9.54,4.85,5.08,5.07,12.99.5,18.72-.99,1.25-1.08,3.29-.19,4.36.28.33.6.61.95.81,1.05.6,2.37.59,3.69-.07-.09-.21-.13-.45-.27-.61-2.41-2.81-2.43-3.24-.18-6.24,1.39-1.84,2.32-3.81,1.81-6.21-.26-1.21-.55-2.42-.66-3.64-.27-2.93-.66-5.69-3.29-7.69-.86-.65-1.4-2.08-1.55-3.23-.18-1.38.2-2.83.37-4.64,3.42,2.86,4.87,3.01,7.69,1.02,2.31-1.63,3.31-4.51,1.96-7-1.25-2.31-2.84-4.51-4.61-6.46-1.55-1.7-2.86-1.56-4.83-.38-1.04.62-2.17,1.09-3.25,1.65-1.08.56-2.24,1.02-3.19,1.76-3.52,2.72-4.67,6.56-5.12,10.82-.3,2.87.78,4.8,3.18,6.1,3.09,1.68,4.6,4.27,4.11,7.71-.33,2.29-1.02,4.59-1.91,6.74-1.12,2.72-3.52,4.32-6.12,5.47-.71.32-1.98.34-2.51-.09-1.58-1.28-2.52-2.72-1.89-5.18.53-2.05,1.61-1.99,3.07-2.25,2.32-.41,3.78-1.94,3.49-3.83-.35-2.28-1.35-4.35-3.68-5.3-1.66-.67-3.37-1.23-5.1-1.68-1.94-.51-3.56.29-4.6,1.92-.58.91-1.24,1.79-1.96,2.6-2.53,2.87-4.46,5.9-3.29,9.99.25.86.53,1.76.49,2.62Z"/>
      <path d="M293.56,263.53c-.19-1.01-.86-1.62-1.94-1.34-.64.16-1.23.54-1.83.84-1.1.54-2.42.86-3.22,1.69-.95.98-1.53,2.36-2.13,3.64-3.46,7.36-6.93,14.72-8.93,22.65-.21.83.03,1.78.06,2.67,3.01-2,4.21-4.71,4.7-7.88.11-.74.99-1.36,1.98-2.62.06,1.19-.09,1.81.15,2.12.42.51,1.53,1.23,1.58,1.17,1.5-1.71,2.22.25,3.4,1.15.69-2.42,1.26-4.41,1.84-6.39.13.01.26.03.39.05.08.5.19,1,.23,1.51.23,3.73,1.99,6.82,4.2,9.67.3.38,1.11.36,1.68.52.13-.5.49-1.08.34-1.48-.49-1.37-1.04-2.74-1.78-3.98-1.33-2.22-1.66-4.63-1.68-7.11,0-.87.25-1.74.31-2.61.28-4.2-.7-8.45.44-12.63.14-.53.31-1.13.21-1.64Z"/>
      <path d="M366.8,287.38c2.09-3.16,4.12-6.36,6.09-9.6.57-.94.64-2.44,1.41-2.93.6-.38,1.94.43,2.95.7.21.06.46.18.65.13,1.78-.51,2.42.46,2.74,1.99.08.4.47.73.73,1.1,1.99-1.72,2.28-2.19,2.34-4.53.07-2.78-.03-5.56.05-8.34.04-1.68-.48-2.7-2.21-3.24-1.14-.35-2.58-.39-2.97-2.2-.2-.96-1.57-.77-1.97.29-.63,1.66-1.02,3.41-1.72,5.03-2.56,5.92-4.93,11.93-8.63,17.3-.67.97-.93,2.26-1.26,3.43-.1.35.16,1.13.34,1.16.48.07,1.26.02,1.47-.29Z"/>
      <path d="M454.66,128.47c1.18,2.45,1.88,4.73-.72,6.91-.57.48-.47,2.13-.2,3.11.15.53,1.32.77,1.43.83,5.09-.34,6.48-1.46,7.66-5.6.34-1.19.41-2.49.96-3.56.82-1.64,1.65-3.49,3-4.62,3.16-2.63,4.53-5.89,3.44-9.69-1.07-3.75-5.77-5.44-8.53-2.91-2.76,2.53-5.47,5.26-6.48,9.01-.56,2.08-1.66,4.26-.56,6.53ZM457.14,128.91c-.93-3.5-.34-6.61,1.89-9.45,1.35-1.72,2.05-3.95,4.4-4.85,2.38-.92,4.05.02,4.45,2.48.5,3.1-.9,5.59-3.15,6.95-3.4,2.05-3.83,5.28-4.54,8.48-.43,1.92-1.03,3.41-3.64,3.67,1.27-2.53,1.21-4.93.59-7.28Z"/>
      <path d="M324.35,209.86c.23-.33.98-.3,1.49-.44.13.52.46,1.11.34,1.56-.3,1.11-.82,2.16-1.46,3.76.97-.38,1.18-.44,1.37-.54,2.64-1.3,4.3-3.27,4.45-6.35.02-.41.62-.79.96-1.18.41.43.97.8,1.18,1.32.42,1.03.62,2.15.96,3.21,1.51,4.65,5.3,5.94,9.45,3.42,1.28-.78,2.87-1.17,4.37-1.46,2.48-.49,2.69-.71,2.1-3.15-.18-.73-.17-1.51-.26-2.36,4.22,1.41,5.96,6.39,3.52,9.63-.34.45-.64.96-1.08,1.29-.76.58-1.61,1.04-2.43,1.54-.3-.92-.6-1.84-.9-2.76-.96,1.09-1.9,2.32-2.99,3.38-2.39,2.32-7.44,2.97-10.24,1.32-.74-.43-1.33-1.13-1.94-1.76-1.27-1.32-2.02-1.14-2.94.61-.22.42-.79,1-1.11.95-3.58-.61-7.26-2.95-7.15-5.98.09-2.27,1.07-4.22,2.31-6.02ZM349.96,256.7c-2.45-.11-4.93-.02-7.34-.37-3.23-.47-6.18.12-9.06,1.48-.51.24-1.07.54-1.59.5-.37-.03-.85-.51-1.03-.9-.72-1.53,2.57-.85,1.49-2.38-1.23-1.75.62-1.6,1.06-2.36,2.32-3.99,6.12-2.6,9.47-2.74.69-.03,2.03.55,2.03.84-.02,2.99,2.76,3.14,4.32,4.49.32.28.81.39,1.22.57-.19.29-.38.58-.56.88Z"/>
      <path d="M377.96,220.21c.26-.95.79-1.83,1.2-2.74h0c-.41.91-.94,1.79-1.2,2.74Z"/>
      <path d="M517.91,212.34c3.43-.18,5.13,2.38,7.17,4.36.28.27.07,1.26-.16,1.81-.38.87-.96,1.65-1.62,2.72-.44-.2-.9-.31-1.25-.56-1.66-1.19-3.32-1.6-5.33-.71-1.37.61-2.99.64-4.41,1.18-.57.22-.85,1.12-1.33,1.66-.63.7-1.3,1.83-2,1.87-.72.03-1.73-.89-2.19-1.64-1.49-2.45-3.24-4.48-6.04-5.54-1.21-.46-2.23-1.46-3.27-2.3-.27-.22-.47-.84-.35-1.13.12-.31.66-.62,1.03-.63,4.01-.12,8.02-.18,12.02-.24.44,0,1.03.26,1.31.06,2-1.45,4.24-.78,6.4-.9Z"/>
      <path d="M355.74,190.07s0,0-.01,0h0s0,0,.01,0h0Z"/>
      <path d="M363.55,193.24c-.45.37-1.63.45-2.07.12-.99-.75-.32-1.72.37-2.27,2.84-2.27,4.86-5.61,8.73-6.59,1.03-.26,1.9-1.16,2.84-1.77-2.43,4.46-6.18,7.47-9.87,10.51ZM363.04,175.61c-2.67.75-5.39,1.43-7.66,3.26-2.94,2.36-4.41,6.42-3.31,9.78.64,1.97.64,1.95,2.82,1.1.05-.02.11-.02.18,0,.03,0,.08.03.11.04.03.01.06.02.1.04.05.03.11.06.16.09.07.04.13.07.2.11.03.01.06.03.09.05,0-.01,0-.03,0-.04,0-.02.02-.04.03-.06-1.53-5.05.45-9.49,5.34-10.94,1.9-.56,4.14,0,6.22.05.07.28.15.56.23.84-.76.49-1.52.98-2.29,1.47-3.63,2.35-7.65,4.27-9.5,8.58.01.04.02.09.04.13-.02,0-.03-.02-.05-.03.05.45.15.83.3,1.09.17.29.42.44.78.36.07-.02.15-.06.23-.09.05-.02.09-.03.14-.05.14-.07.28-.17.44-.3,3.57-2.85,7.12-5.72,10.61-8.67.53-.45.92-1.37.91-2.07,0-2.4-3.77-5.39-6.11-4.73Z"/>
      <path d="M355.74,190.07s.03.02.05.03l-.05-.05s0,.02,0,.03Z"/>
      <path d="M477.8,229.79c-.42.34-.91.77-1.04,1.25-.12.47.04,1.15.35,1.53.16.19.99.05,1.35-.19,1.08-.72,2.03-1.65,3.14-2.31.92-.55,2.01-1.17,3.01-1.15,1.88.03,4.09-.75,5.48,1.43.14.22.98.32,1.15.14.33-.34.71-1.12.54-1.36-1.57-2.27-.32-4,1.14-5.49,1.18-1.2.94-2.1.05-3.17-.43-.52-.83-1.07-1.24-1.6.17-.15.35-.3.52-.44,1.61,1.32,3.27,2.6,4.81,4,.68.62,1.18,1.5,2.22.88,1.23-.73.74-1.95.21-2.66-1.08-1.41-2.26-2.91-3.74-3.79-2.66-1.58-5.55-3.09-8.6-.57-.33.27-.82.36-1.24.52-.13.18-.27.35-.43.51-.09.67-.04,1.4-.3,1.99-1.78,3.97-3.89,7.72-7.39,10.49Z"/>
      <path d="M313.9,205.59s0-.01.01-.02c-.01,0-.02,0-.03.01h0s.01,0,.02,0Z"/>
      <path d="M313.91,205.57h0s.03-.02.05-.03h0s-.03.02-.05.03Z"/>
      <path d="M313.91,205.57s-.02,0-.03.01c.01,0,.02-.01.03-.01h0Z"/>
      <path d="M311.9,202.51c1.77.14,2.59.21,2.79.64-.19-.44-1.01-.5-2.79-.64Z"/>
      <path d="M320.15,201.53c-.07.07-.14.15-.2.21.07-.07.13-.14.2-.21Z"/>
      <path d="M313.9,205.59s-.01,0-.02,0c0,0,.05.03.03.02h0s.02.01.02.01c.01-.03.02-.05.03-.07-.02,0-.03.02-.05.03,0,0,0,.01-.01.02Z"/>
      <path d="M322.77,198.22c-.15.24-.28.51-.44.74.16-.23.29-.49.44-.74Z"/>
      <path d="M324.21,195.33c-.27.68-.56,1.33-.87,1.93.31-.6.61-1.24.87-1.93Z"/>
      <path d="M321.48,200.07c-.1.12-.19.26-.29.37.1-.12.19-.25.29-.37Z"/>
      <path d="M318.66,202.82s-.05.04-.07.06c.02-.02.05-.04.07-.06Z"/>
      <path d="M473.6,180.07l-.07-.06s-.03.04-.05.06c.04,0,.08,0,.12,0Z"/>
      <path d="M466.95,183.42c.47-.41.93-.85,1.4-1.26-.47.42-.93.85-1.4,1.26Z"/>
      <path d="M471.46,180.24s.02,0,.03-.01c0,0-.02,0-.03.01Z"/>
      <path d="M473.45,180.06c-.08,0-.14,0-.21,0,.07,0,.14,0,.21,0h0Z"/>
      <path d="M473.53,180.01h-.02s-.04.03-.06.06c0,0,.02,0,.03,0,.02-.02.03-.04.05-.06Z"/>
      <path d="M472.3,180.07s.08-.02.13-.02c-.04,0-.08.02-.13.02Z"/>
      <path d="M385.81,205.08s-.09,0-.14.02l.09.09s.03-.07.05-.11Z"/>
      <polygon points="385.82 205.08 385.82 205.08 385.82 205.08 385.82 205.08"/>
      <path d="M385.82,205.08s.08,0,.12-.02c-.04,0-.08,0-.12.02h0Z"/>
      <path d="M388.08,205.39s-.08-.07-.12-.1c.04.02.08.07.12.1Z"/>
      <path d="M385.81,205.08s-.09.01-.14.02c.05-.01.09-.01.14-.02h0Z"/>
      <path d="M386.44,205c.08,0,.16,0,.24,0-.08,0-.16,0-.24,0Z"/>
      <path d="M387.25,205.05c-.08-.01-.15-.04-.24-.05.08,0,.16.03.24.05Z"/>
      <path d="M385.82,205.08c.36-.81.68-1.64,1.08-2.42-.41.78-.73,1.62-1.09,2.42h0s0,0,0,0Z"/>
      <path d="M387.7,205.18c-.06-.03-.12-.06-.18-.08.07.02.12.05.18.08Z"/>
      <path d="M388.33,205.61s.02.03.03.04c0-.01-.02-.03-.03-.04Z"/>
      <polygon points="313.88 205.59 313.88 205.59 313.88 205.59 313.88 205.59"/>
      <path d="M312.7,205.91c.39-.09.77-.2,1.16-.32h0c-.39.12-.78.23-1.16.32Z"/>
      <path d="M310.37,206.25c-.18,0-.36,0-.53,0,.18,0,.36.01.53,0Z"/>
      <path d="M305.83,204.97c.09.01.18,0,.28.01-.09,0-.18,0-.28-.01Z"/>
      <path d="M313.88,205.59s0,0,0,0c.02,0,.03,0,.04.01l-.03-.02s0,0,0,0Z"/>
      <path d="M312.7,205.91c-.32.08-.64.13-.96.19.32-.05.64-.11.96-.19Z"/>
      <path d="M305.8,205.38c-.37-.17-.75-.37-1.12-.6.37.23.74.42,1.12.6Z"/>
      <path d="M311.53,206.14c-.25.04-.5.05-.75.07.25-.02.5-.04.75-.07Z"/>
      <path d="M309.21,206.24c-.1,0-.19-.02-.28-.03.09,0,.19.03.28.03Z"/>
      <path d="M308.07,206.1s-.03,0-.05-.01c.02,0,.03,0,.05.01Z"/>
      <polygon points="313.88 205.59 313.88 205.59 313.88 205.59 313.88 205.59"/>
      <path d="M313.88,205.59h0l.03.02h0s-.03-.01-.03-.02Z"/>
      <path d="M385.77,205.19l-.09-.09s.02.07.04.11c.02,0,.04-.01.05-.02Z"/>
      <path d="M384.1,206.55c-.02-.73.43-.91,1.61-1.34h0c-1.18.43-1.63.61-1.61,1.34Z"/>
      <path d="M385.68,205.1s.02.07.04.11h0s-.02-.07-.04-.11Z"/>
      <path d="M385.77,205.4c.03.11.07.21.09.31-.02-.1-.06-.21-.09-.31Z"/>
      <path d="M385.88,205.97c0,.07.02.15.02.21,0-.07-.02-.14-.02-.21Z"/>
      <path d="M385.87,206.54s0,.06,0,.09c0-.03,0-.06,0-.09Z"/>
      <path d="M98,240.61c0-.09-.47-.19-.81-.32v2.63c.19.02.38.04.57.06.09-.79.21-1.57.24-2.36Z"/>
      <path d="M103.97,240.01c-.05,1.04-.1,2.07-.16,3.11.18,0,.35,0,.52.01v-3.11c-.12,0-.24,0-.37-.01Z"/>
      <path d="M379.16,217.47c.53-.58,1.07-1.15,1.6-1.73-.16-.11-.31-.22-.46-.34-.41.66-.82,1.32-1.24,1.97l.1.09h0Z"/>
      <path d="M379.16,217.47h0c.53-.58,1.07-1.15,1.6-1.73-.53.57-1.07,1.15-1.6,1.73h0Z"/>
      <path d="M181.91,313.1c-.04.39.15.8.24,1.2.22-.19.44-.38.66-.57.24-.19.49-.38.73-.57-.31-.21-.61-.53-.94-.59-.21-.03-.66.31-.68.53Z"/>
      <path d="M129.15,340.38h0c.04-.8.09-1.61.13-2.41h-.3c.06.81.11,1.61.17,2.42h0Z"/>
      <path d="M129.15,340.38c.04-.8.09-1.61.13-2.41-.04.8-.09,1.61-.13,2.41h0Z"/>
      <path d="M475.99,180.01c-.03-.2-.06-.4-.09-.59-.69.2-1.38.39-2.06.59.72,0,1.44,0,2.15,0Z"/>
      <path d="M473.81,180.01s.01,0,.02,0h0s-.02,0-.02,0h0Z"/>
      <path d="M473.81,180.01h-.29s.07.06.07.06c.07-.02.14-.04.22-.06Z"/>
      <path d="M473.6,180.07c.07-.02.14-.04.22-.06h0c-.07.02-.14.04-.22.06Z"/>
      <path d="M473.81,180.01s0,0,.02,0c-.11,0-.21,0-.32,0,0,0,0,0,0,0h.29Z"/>
      <path d="M186.48,190.89c1.55-.3,1.17.93,1.27,1.64.08.65-.13,1.34-.13,2.01,0,.8,2.03,2.29,2.62,1.98,1.83-.97,2.69-1.09,4.64-.08-1.16.29-2.36.51-3.48.92-.37.14-.55.78-.82,1.2.37.16.83.56,1.09.45,2.69-1.11,5.42-.74,8.19-.42,1.42.16,2.89,0,4.33-.14,4.07-.38,7.93-1.71,12.26-1.03,4.29.67,8.22,2.12,11.91,4,2.2,1.12,4.24,1.73,6.59,1.92,3.68.3,7.17-.5,10.61-1.61,1.79-.58,3.59-1.2,5.29-2.01.53-.25.93-1.17,1.01-1.84.11-.93.12-2.02-.29-2.81-.44-.88-1.42-1.47-2.12-2.23-1.39-1.5-4.32-2.02-5.78-.66-2.03,1.89-4.51,1.6-6.89,1.99-2.52.42-4.4-1.31-6.68-1.68-1.74-.28-2.97-1.96-2.88-3.67.07-1.2.48-2.52.12-3.57-.46-1.34-1.52-2.49-2.38-3.67-.1-.14-.84-.08-.93.09-1.04,1.9-2.45,3.4-4.36,4.42-.06.04-.09.21-.08.31.18,2.72-1.53,3.09-3.67,3.03-.54-.02-1.1.2-1.65.34-4.55,1.24-9.13,2.24-13.86,1.12-2.48-.58-4.99-1.16-7.32-2.14-1.47-.62-1.34-.94-3,.13-.4-3-1.46-5.44-5.29-5.78.39,2.44.73,4.73,1.12,7.01.05.29.41.8.55.77Z"/>
      <path d="M180.83,234.97c3.26,1.23,5.72,3.58,8.27,5.81.49.43,1.15.7,1.51,1.2,4.27,5.91,8.49,11.86,12.77,17.77.25.34.93.7,1.26.59,1.93-.63,3.8-1.38,4.78-3.42.49-1.01.98-2.11,1.78-2.84,1.67-1.54,1.58-3.38,1.28-5.29-.31-1.99-.71-3.96-1.14-5.93-.19-.87-.4-1.79-.87-2.51-.38-.58-1.17-.88-1.78-1.3-.21.68-.48,1.34-.61,2.03-.05.28.32.62.32.94,0,.69-.08,1.97-.16,1.97-1.43.03-1.09-1.18-1.05-1.92.07-1.52-.55-2.47-2.24-3.46-.15,3.21-.28,6.08-.41,8.97-2.02-1.79-3.62-3.77-5.68-4.9-3.24-1.79-4.78-4.15-4.03-7.65.51-2.39.26-2.82-2.06-3.52-.62-.19-2.93-2.63-2.75-3.09.8-2.09-1.09-3.31-1.25-5.8-.73,1.78-1.13,2.78-1.54,3.77-.29-.03-.58-.06-.87-.09,0-1.07.01-2.15,0-3.22-.01-.79.04-1.59-.13-2.35-.22-1.02-.72-2.07-1.97-1.78-.36.09-.65,1.25-.66,1.93-.08,4.24-1.3,8.14-3.48,11.74-.7,1.16-.51,1.89.72,2.36Z"/>
      <path d="M178.01,258.92c.39-.09.83-.02,1.28-.02-.79,3.92-.78,4.21,2.15,7.17,3.24,3.26,5.61,7.04,6.79,11.45.97,3.64,2.64,6.83,5.05,9.65,1.27,1.48,2.17,1.61,3.8.43,1.99-1.45,3.05-3.58,3.14-6,.09-2.34-.08-4.69-.33-7.02-.22-2.1-.6-4.2-1.14-6.24-.33-1.25-.93-2.89-2.62-2.49-1.73.41-.6,2.06-.85,3.92-1.51-.87-2.33-2.6-3.99-1.84-.19-.78-.72-2.13-.52-2.26,1.47-.89.77-2.21.91-3.35.14-1.14.28-2.44-1.16-2.66-.33-.05-1.19,1.44-1.28,2.29-.19,1.66-1.39,2.36-2.56,2.81-1.31.49-2.34-.3-2.81-1.56,1.48-1.75,3.06-3.36,4.3-5.2.52-.78.81-2.39.36-3-.85-1.16-1.68.19-2.48.68-.13.08-.39-.05-.78-.1.22-1.98-2.24-3.04-1.75-5.3.29-1.34-.37-2.6-1.8-2.76-1.67-.19-1.41,1.39-1.64,2.4-.53,2.4-.74,4.92-2.75,6.72-.23.21-.35.58-.47.89-.49,1.19-.21,1.72,1.16,1.4Z"/>
      <path d="M120.35,232.59c1.18-.37,2.17-.5,2.64,1.03.09.3.72.56,1.12.61,1.27.14,2.28.57,3.19,1.56.43.46,1.43.44,2.19.54,1.32.18,2.64.39,3.96.38.92,0,2.02-.11,2.7-.62.71-.53-.08-2.63-1.04-3.41-.69-.55-1.66-1.03-1.95-1.76-1.21-3.06-3.45-4.25-6.61-4.18-2.1.3-4.2.66-6.31.87-3.26.33-3.33.48-2.13,3.64.43,1.15,1.01,1.72,2.22,1.34Z"/>
      <path d="M118.19,257.89c1.86.68,3.68,1.56,5.6,1.99,1.24.27,2.65-.03,3.92-.32.22-.05.15-1.37.21-2.1.18-1.92-.11-3.18-2.54-2.57-.3.07-.71-.3-1.07-.47,1.28-1.55-.91-2.12-1-3.35-.04-.47-.96-1.22-1.51-1.26-3.42-.21-5.66,2.18-8.15,3.99-.14.1.11.75.18,1.14l4.34,2.95ZM121.54,251.97c.09.19.18.39.27.58-1.44.72-2.89,1.44-4.33,2.16-.15-.19-.31-.38-.46-.57,1.51-.72,3.01-1.45,4.51-2.17Z"/>
      <path d="M126.48,213.17c1.5-.69,2.78-.49,4.19.1.71.3,1.51.51,2.28.53,2.05.05,3.33-1.12,3.28-3.16.1-1.19-.42-2.05-2.09-2.02-.97.02-2.07.02-2.9-.4-1.11-.56-1.91-.28-2.79.29-1.03.66-2.17,1.22-3.07,2.02-.57.51-.8,1.39-1.19,2.1.78.21,1.73.8,2.29.54Z"/>
      <path d="M560.25,296.67c-.27-.06-.73.42-.96.75-.17.25-.09.66-.17.99-1.25,4.97-2.41,9.97-3.81,14.9-.54,1.87-1.62,3.59-2.77,6.07-.15-2.11-.24-3.37-.38-5.24-.86,1.84-1.46,3.14-2.07,4.45-1.59-1.87-1.77-2.64-1.32-5.1.18-.99.34-1.99.4-2.99.24-3.89.97-7.83-.93-11.55-.37-.72-.89-1.35-1.7-2.57-.22,1.17-.38,1.59-.37,1.99.05,3.54.35,7.09.12,10.62-.21,3.22-1.3,6.28-2.28,9.39-1.67,5.32-5.18,8.92-8.99,12.54-3.25,3.09-7.4,4.53-11.26,6.5-1.98,1.01-3.99,2.11-6.13,2.64-3.41.85-6.81,1.97-10.51,1.24-1.54-.31-3.29.59-4.91.48-3.43-.24-6.83-1.02-10.27-1.16-3.33-.13-6.41-.93-9.39-2.25-2.27-1.01-4.97-1.47-5.68-4.49-.09-.36-.59-.65-.94-.94-4.37-3.59-6.79-8.31-7.64-13.8-.33-2.14-.43-4.48.08-6.56.69-2.78,3.33-4.38,5.15-6.47.18-.21.66-.4.89-.32,1.47.56,2.96,1.08,4.34,1.83.87.47.61,1.71-.38,2.05-.63.22-1.36.2-1.97.46-1.95.81-3.19,3.48-2.56,5.34.92,2.74,4.03,5.04,7.11,5.2,1.67.08,3.35-.02,5.02.11,5.18.39,8.95-4.05,10.74-8.09,1.93-4.36,2.11-9.1,2.26-13.78.2-6.1-3.05-10.85-8.77-13.05-2.41-.93-4.81-1.95-7.31-2.56-3.35-.81-4.54-2.96-4.54-6.11,0-1.11.1-2.22.09-3.32-.02-1.18.51-1.57,1.66-1.46,1.79.17,3.59.3,5.38.31,1.19,0,1.6.58,1.64,1.63.02.56,0,1.13.03,1.69.17,3.89,5.25,8.18,9.03,7.64.11-.02.24,0,.33-.06,1.99-1.23,4.24-2.18,5.87-3.78,1.6-1.56,2.81-2.9,5.1-1.42.28.18.95.14,1.15-.07.25-.26.43-.96.25-1.21-.4-.6-.96-1.39-1.57-1.52-2.35-.48-4.61-.59-6.47,1.59-1.06,1.24-2.48,2.31-3.94,3.03-2.91,1.44-6.82-1.3-6.79-4.58.04-3.98-1.46-5.7-5.37-6.15-.67-.08-1.34-.11-2.02-.14-5.35-.23-8.44,3.41-7.23,8.56.3,1.3.68,2.59,1.06,3.87.67,2.25,2.24,3.41,4.47,4.09,2.89.88,5.69,2.04,8.52,3.13,2.27.87,4.04,2.23,5.12,4.56,1.31,2.81,1.95,5.78,1.5,8.74-.51,3.41-1.74,6.69-2.45,10.08-.35,1.69-1.27,2.73-2.57,3.7-1.3.97-2.61,1.66-4.3,1.56-2.64-.15-5.34.89-7.91-.45-.97-.5-2.2-.74-2-2.31.15-1.15.25-2.15,1.74-2.48.93-.21,1.82-.86,2.6-1.47,2.16-1.69,2.01-4.64-.37-5.79-1.69-.81-3.59-1.19-5.32-1.94-1.46-.63-2.82-.22-3.81.56-4.02,3.16-6.92,7-6.72,12.48.03.67-.13,1.34-.21,2.09-2.15-1.6-2.53-4.67-5.59-4.81-.26-.01-.49-.88-.7-1.37-.61-1.41-1.21-2.83-1.82-4.25-.22.03-.44.07-.66.11-.17.63-.51,1.26-.47,1.88.24,3.45.41,6.92.91,10.34.43,2.99,1.31,5.9,3.02,8.47,1.47,2.21,2.85,4.5,4.43,6.62,1.4,1.87,3.04,3.55,4.58,5.31.79.91,1.49,1.9,2.36,2.73,1.04,1,2.06,2.27,3.34,2.73,5.1,1.83,10.04,4.24,15.65,4.4,4.01.11,8.09,1.25,11.98.74,4.38-.58,8.99,1.51,13.14-1.12,6.02-.56,11.29-3.52,16.88-5.42,1.24-.43,2.35-1.31,3.45-2.08,3-2.1,6-4.21,8.93-6.41,1.61-1.21,3.24-2.45,4.56-3.94,5.12-5.78,8.67-12.43,10.82-19.87,1.1-3.8,2.39-7.52,2.22-11.54-.04-1.12-.17-2.25-.46-3.33-.1-.38-.74-.78-1.19-.86Z"/>
      <path d="M460.84,299.18c3.77.95,5.52-.05,6.36-3.64.13-.54.25-1.08.51-2.2-.73-1.02-1.65-2.34-2.61-3.64-.49-.67-.93-1.56-1.61-1.86-.75-.34-1.77-.23-2.65-.15-1.81.17-1.79,1.71-2.09,3-.2.87-.38,1.74-.61,2.6-.82,3.05.18,5.25,2.69,5.88ZM461.13,291.49c.52-.44,1.54-.94,1.94-.72.62.34.96,1.26,1.29,2,.16.37.03.87.03,1.78-.03.2.1,1.03-.26,1.46-.39.48-1.34.97-1.83.81-1.7-.56-2.47-4.22-1.18-5.33Z"/>
      <path d="M369.3,226.07c-.19.1-.32.32-.51.44-1.98,1.14-3.93,1.79-6.38,1.34-4.51-.81-9.09-1.25-13.66-1.68-2.22-.21-4.47.1-6.69-.07-8.72-.68-17.17.93-25.53,3.05-2.41.61-4.47.93-6.68-.6-1.57-1.09-3.69-.63-5.17.88-1.15,1.18-1.81,2.68-1.06,4.32,1.2,2.64,2.24,5.3,4.3,7.54,1.95,2.13,3.9,4.23,5.93,6.29,3.32,3.37,5.34,4,9.69,1.87.98-.48,2.12-.68,3.2-.93,3.37-.77,6.73-1.65,10.13-2.22,2.38-.39,4.92-.82,7.23-.39,3.48.65,6.8,2.1,10.22,3.1,1.59.46,3.25.66,4.5.91,3.3-.07,5-1.43,5.77-4.25.14-.51.44-1.03.81-1.4,1.87-1.91,3.71-3.86,5.72-5.62,2.98-2.62,4.24-6.05,3.84-9.74-.45-4.15-2.02-4.75-5.66-2.83ZM372.38,231.68c-3.09,5.34-7.16,9.91-11.47,14.26-.79.8-1.96,1.22-2.88,1.77-2.81-.88-5.23-1.71-7.69-2.38-2.48-.66-5.04-1.04-7.5-1.76-1.41-.42-2.63-.35-3.89.28-.4.2-.86.46-1.26.41-4.84-.62-9.2.97-13.59,2.67-5.16,2-7.37,1.22-10.47-3.17-1.99-2.82-4.05-5.59-6.09-8.38-.26-.36-.67-.69-.78-1.09-.25-.93-.36-1.91-.53-2.86.93-.12,1.95-.55,2.78-.32,4.47,1.23,8.71.94,13.08-.75,2.54-.98,5.44-1.1,8.2-1.41,2.54-.29,5.2.29,7.59-1.09.18-.1.44-.1.66-.09,4.69.31,9.4.46,14.06,1,3.31.39,6.54,1.5,9.86,1.91,1.83.23,3.77-.26,5.64-.53.88-.12,1.7-.61,2.58-.7.66-.07,1.51.04,1.98.43.25.2.03,1.28-.27,1.79Z"/>
      <path d="M329.19,221.87c.32.05.89-.53,1.11-.95.93-1.76,1.67-1.93,2.94-.61.61.63,1.2,1.33,1.94,1.76,2.8,1.64,7.86.99,10.24-1.32,1.09-1.06,2.03-2.28,2.99-3.38.3.92.6,1.84.9,2.76.81-.51,1.67-.96,2.43-1.54.43-.33.74-.84,1.08-1.29,2.44-3.24.71-8.21-3.52-9.63.09.84.08,1.62.26,2.36.59,2.44.39,2.65-2.1,3.15-1.5.3-3.09.68-4.37,1.46-4.15,2.52-7.94,1.24-9.45-3.42-.34-1.06-.54-2.18-.96-3.21-.21-.51-.77-.88-1.18-1.32-.33.39-.94.77-.96,1.18-.15,3.08-1.81,5.05-4.45,6.35-.19.1-.4.16-1.37.54.64-1.59,1.16-2.64,1.46-3.76.13-.46-.21-1.04-.34-1.56-.51.14-1.26.11-1.49.44-1.24,1.81-2.23,3.75-2.31,6.02-.12,3.03,3.57,5.38,7.15,5.98Z"/>
      <path d="M344.99,250.76c0-.29-1.33-.87-2.03-.84-3.35.14-7.15-1.25-9.47,2.74-.44.77-2.29.62-1.06,2.36,1.08,1.53-2.21.85-1.49,2.38.18.39.66.87,1.03.9.51.04,1.08-.26,1.59-.5,2.88-1.36,5.84-1.95,9.06-1.48,2.42.35,4.89.26,7.34.37.19-.29.37-.59.56-.88-.41-.19-.9-.29-1.22-.57-1.56-1.35-4.35-1.51-4.32-4.49Z"/>
      <path d="M295.14,174.65c.98-.49,1.81-1.27,2.69-1.94,2.04-1.54,4.75-2.99,6.75-1.75,1.75,1.1,2.8.49,4.18.27,1.44-.23,2.86-.73,4.29-.73,1.06,0,1.77-.22,2.71-.78,3.9-2.34,4.11-2.63.44-5.31-2.06-1.51-3.78-2.91-4.28-5.55-.25-1.32-1.41-1.66-2.65-1.49-.75.1-1.48.33-2.28.51,0-1.28-.45-2.75.09-3.53,1.62-2.35,3.61-4.45,5.48-6.62.44-.51,1.07-.86,1.44-1.4.28-.4.39-.99.35-1.48-.01-.15-.77-.35-1.19-.34-2.49.04-4.21,1.52-5.57,3.36-1.73,2.34-3.41,4.74-4.86,7.27-1.15,2.01-2.39,4.16-2.75,6.38-.41,2.55-1.34,4.57-2.92,6.53-1.31,1.62-2.41,3.45-3.34,5.32-.51,1.02.38,1.81,1.4,1.29Z"/>
      <path d="M545.44,230.68c-.87-.15-1.8-.34-2.65-.21-3.95.63-7.88,1.37-11.82,2.06-.66.12-1.35.34-1.99.24-4.52-.7-8.85.72-13.25,1.18-1.66.17-3.79.46-3.36,3.21.07.44-.46.98-.75,1.46-1.83,3.04-3.08,6.47-6.09,8.73-.47.36-.76,1.53-.53,2.07.2.46,1.24.63,1.95.76.51.1,1.28.12,1.58-.18,1.56-1.56,4.68-1.27,5.07-4.24.03-.2.48-.54.68-.5,2.9.56,6.06-1.32,8.81,1.03.72.61,1.98.9,2.64-.29.56-1.03.25-2.08-.84-2.55-1.45-.63-1.08-1.36-.42-2.31,1.91-2.7,5.05-2.89,7.82-3.68,4.37-.75,8.73-1.49,13.1-2.24,1.14-.2,2.23-.39,2.2-1.98-.03-1.49-.76-2.31-2.16-2.55Z"/>
      <path d="M562.57,273.51c-1.75-.32-3.48-.79-5.2-1.22-.75-.19-1.48-.59-2.23-.63-2.66-.14-5.35.02-7.98-.3-3.79-.46-6.95.41-9.57,3.28-.73.8-1.75,1.4-2.73,1.89-3.99,2-8.04,3.91-12.03,5.9-.4.2-.63.75-.95,1.13.34.23.66.58,1.04.68,2.07.54,3.96-.05,5.85-.88,2.17-.95,4.11-2.73,6.83-1.84.49.16,1.23-.38,1.84-.66q3.03-1.4,5.12,1.13c.07.09.11.2.18.28,1.18,1.32,1.96,1.17,2.54-.46.22-.61.32-1.56.73-1.73,2.75-1.13,5.18-3.24,8.4-3.05,2.55.15,5.11.29,7.66.44.09.23.19.45.28.68.87-.67,2.23-1.2,2.48-2.05.4-1.36-.8-2.31-2.27-2.58Z"/>
      <path d="M148.51,328.28c-.77-2.95-1.05-5.93.6-8.82,1.74-3.04,3.87-5.7,6.6-7.93,3.02-2.47,4.16-2.45,6.8.52,1.74,1.96,5.76,1.88,6.63-.29.52-1.29.5-2.89.32-4.3-.07-.55-1.23-1.04-1.98-1.36-.14-.05-.83.85-1.01,1.39-.31.93-.42,1.93-.65,3.09-.62-.24-.87-.27-1.02-.41-4.17-3.82-8.27-3.94-12.45-.26-3.99,3.51-6.44,8.07-7.37,13.17-.52,2.87.24,5.98.45,8.98.05.67.06,1.39.33,1.98,2.15,4.77,2.04,9.47-.06,14.25-1.38,3.15-3.37,4.66-6.68,4.25-1.52-.18-2.97-.89-4.55-1.39-.44,1.72-.09,3.08,1.46,4.09.64.42,1.32.93,1.7,1.56,1.08,1.76,2.68,2.08,4.4,1.54,4.01-1.27,7.47-3.43,9.79-7.07.41-.65.66-1.42.87-2.17,1.54-5.36.52-10.39-1.89-15.27-.89-1.8-1.81-3.64-2.31-5.56Z"/>
      <path d="M161.48,328.73c.27-.35.61-.66.96-.94,1.12-.91,1.89-1.95,1.35-3.08.31-4.49-2.72-6.53-5.19-8.88-.3-.29-1.12-.27-1.59-.1-2.3.83-4.14,2.17-4.66,4.77-.22,1.1-.44,2.18-.71,3.27-.75,3.06.33,5.24,3.37,6.79,2.57,1.31,4.45.77,6.47-1.83ZM157.93,326.64c-2.64-.73-3.96-4.69-2.25-6.76,1.05-1.27,2.44-1.5,3.44-.2.98,1.28,1.53,2.9,1.96,3.75-.09,2.63-1.43,3.68-3.14,3.21Z"/>
      <path d="M510.2,213.18c-4.01.06-8.02.12-12.02.24-.37.01-.91.32-1.03.63-.12.29.08.91.35,1.13,1.04.84,2.06,1.84,3.27,2.3,2.8,1.06,4.55,3.09,6.04,5.54.46.76,1.47,1.68,2.19,1.64.7-.03,1.37-1.17,2-1.87.48-.53.76-1.44,1.33-1.66,1.42-.54,3.04-.57,4.41-1.18,2.02-.89,3.67-.48,5.33.71.35.25.8.37,1.25.56.65-1.07,1.24-1.85,1.62-2.72.23-.55.44-1.54.16-1.81-2.04-1.98-3.73-4.54-7.17-4.36-2.17.12-4.4-.56-6.4.9-.28.2-.87-.06-1.31-.06Z"/>
      <path d="M233.8,240.89c.75-3.06.3-6.52,3.07-8.9.2-.17.14-.64.21-.97.9-4.4-1.43-8.89-5.38-11.07-1.52-.83-2.87-.96-4.41-.6-1.08.25-2.15.52-3.22.79-1.51.38-1.42.64-.56,1.98,1.15,1.8,3.08,1.1,4.81,1.61-.44.27-.59.4-.78.47-2.23.92-2.16.86-.61,2.79,1.7,2.11,3.65,4.24,2.06,7.32-.05.09-.02.22-.03.33-.37,2.71-.56,5.18,2.49,6.83,1.68.91,1.9,1.19,2.34-.59Z"/>
      <path d="M303.92,180.16c-2.58,1.68-4.31,3.95-4.03,7.23.04.47.52.91.8,1.37.39-.31,1-.53,1.14-.93,1.24-3.48,4.09-4.57,7.92-5.51-.84,1.13-1.3,1.71-1.72,2.32-1.25,1.84-2.56,3.64-3.66,5.57-.3.52.05,1.42.1,2.15.63-.27,1.43-.38,1.85-.85,2.24-2.47,4.4-5.01,6.53-7.56.86-1.03,1.69-2.1,2.35-3.27.7-1.24.18-2.05-1.26-2.34-1.63-.33-3.26-.7-4.89-1.04,0,0,.1-.07.09-.06-1.76.97-3.57,1.83-5.23,2.92Z"/>
      <path d="M310.8,193.03c4.15-2.48,6.93-6.29,9.64-10.15.18-.26.24-.62.46-1.23-.46-.27-1.1-.89-1.4-.76-1.19.53-2.48,1.08-3.35,2-2.06,2.17-3.91,4.55-5.83,6.86-.43.52-.91,1.04-1.12,1.65-.2.57-.08,1.25-.1,1.88.57-.08,1.25.02,1.71-.26Z"/>
      <path d="M321.84,189.23c-3.35,2.92-7,5.11-11.62,5.27-.94.03-1.86.57-2.78.87.04.3.07.6.1.91,1.39.06,2.78.1,4.17.18,5.05.29,8.61-2.24,11.39-6.13.29-.41.11-1.15.15-1.74-.48.21-1.04.32-1.41.64Z"/>
      <path d="M355.44,189.91c-.05-.03-.11-.06-.16-.09.05.03.11.06.16.09Z"/>
      <path d="M355.73,190.07c.05.45.15.83.31,1.1-.16-.27-.25-.65-.3-1.09,0,0,0,0-.01,0Z"/>
      <path d="M355.07,189.75s.08.03.11.04c-.04-.01-.08-.04-.11-.04Z"/>
      <path d="M357.63,191.08c-.16.13-.31.23-.44.3.14-.07.28-.17.44-.3Z"/>
      <path d="M356.82,191.53c.07-.02.15-.06.23-.09-.08.03-.16.07-.23.09Z"/>
      <path d="M355.64,190.02s.06.03.09.05h0s-.06-.03-.09-.05Z"/>
      <path d="M361.85,191.09c-.69.55-1.36,1.52-.37,2.27.43.33,1.61.25,2.07-.12,3.7-3.04,7.44-6.04,9.87-10.51-.94.61-1.81,1.51-2.84,1.77-3.87.98-5.88,4.32-8.73,6.59Z"/>
      <path d="M290.47,234.74c.23-.25,0-1.42-.16-1.45-.81-.15-1.66-.08-2.5-.05-.21,0-.43.13-.6.26-.57.41-1.12.84-1.68,1.27.62.72,1.24,1.43,2.06,2.39,1.11-.9,2.1-1.57,2.89-2.41Z"/>
      <path d="M121.82,252.55c-.09-.19-.18-.38-.27-.58-1.5.72-3.01,1.45-4.51,2.17.15.19.31.38.46.57,1.44-.72,2.88-1.44,4.33-2.16Z"/>
      <path d="M355.79,190.1s-.02-.09-.04-.13c0,.02-.02.04-.03.06.01.02.07.07.07.07Z"/>
      <path d="M331.88,233.88c-4.18-.66-7.87.64-11.64,2.01-1.27.46-2.73.48-4.11.55-1.33.07-2.68-.05-4.02-.09.71,1.08,1.36,2.2,2.14,3.23,1.41,1.87,3.34,2.04,5.12.56.69-.57,1.31-1.37,2.1-1.62,4.25-1.34,8.59-2.2,13.08-2.32,2.62-.07,5.36.74,7.87-.58.05-.31.1-.63.15-.94-1.34-.33-2.67-.87-4.02-.93-2.22-.1-4.5.47-6.66.13Z"/>
      <path d="M362.85,236.17c-2.27,1.05-4.31.9-6.54-.36-1.39-.79-3.33-.61-4.72-1.39-2.06-1.17-3.03.06-4.91,1.75,1.6.37,2.58.5,3.48.82,2.82,1.01,5.77,1.81,8.37,3.24,2.77,1.53,2.65,1.8,4.7-.63.44-.51.94-1.01,1.2-1.61.23-.54.15-1.22.21-1.83-.6,0-1.29-.21-1.78.02Z"/>
    </g>
    <g>
      <path class="cls-1" d="M222.86,425.22c.38.65.52,1.35.43,2.1-.09.75-.4,1.4-.92,1.94-.53.54-1.16.88-1.9,1.01l-23.49,4.14-1.18-6.72,12.4-2.19-12.19-5.37c-.51-.23-.95-.56-1.31-1.02-.36-.45-.58-.95-.68-1.48-.21-1.2.12-2.23,1-3.07l9.62-9.22-12.4,2.19-1.18-6.72,23.49-4.14c.74-.13,1.45-.03,2.13.3.68.33,1.19.83,1.53,1.51.34.68.45,1.39.31,2.12s-.47,1.36-1.01,1.88l-14.09,13.48,17.84,7.82c.69.3,1.22.77,1.6,1.42Z"/>
      <path class="cls-1" d="M208.87,461.03l2.38-2.89-4.95-10.47h-3.75s-3.22-6.79-3.22-6.79l27.92-.14c.69,0,1.31.16,1.86.52.56.36.98.83,1.26,1.43.28.6.39,1.23.31,1.88-.08.66-.34,1.24-.78,1.77l-17.82,21.49-3.22-6.8ZM213.84,447.64l2.22,4.69,3.96-4.76-6.17.07Z"/>
      <path class="cls-1" d="M245.41,466.57c1.55,1.92,2.5,4.08,2.86,6.48.36,2.4.11,4.73-.75,6.99-.86,2.26-2.26,4.17-4.18,5.71-1.92,1.55-4.08,2.5-6.48,2.86-2.4.36-4.72.11-6.99-.76-2.26-.86-4.17-2.26-5.71-4.18l-8.55-10.63,21.25-17.11,8.55,10.63ZM229.47,479.4c1.17,1.46,2.7,2.29,4.58,2.49,1.88.2,3.55-.28,5.01-1.45,1.46-1.17,2.29-2.7,2.49-4.58s-.28-3.55-1.45-5.01l-4.28-5.31-10.63,8.55,4.28,5.31Z"/>
      <path class="cls-1" d="M269.77,520.96l.32-3.73-10.01-5.82-3.09,2.13-6.5-3.78,22.92-15.93c.56-.4,1.17-.6,1.83-.63.66-.02,1.28.13,1.85.47.57.33,1.01.79,1.32,1.38.31.59.43,1.22.36,1.9l-2.5,27.8-6.5-3.78ZM266.28,507.11l4.48,2.61.56-6.16-5.04,3.56Z"/>
      <path class="cls-1" d="M290.03,522.12l12.94,4.33-2.17,6.47-16.19-5.42c-.89-.3-1.54-.86-1.96-1.7-.42-.84-.47-1.71-.17-2.62l7.57-22.62,6.47,2.17-6.5,19.4Z"/>
      <path class="cls-1" d="M323.69,529.54c.95.11,1.8-.12,2.53-.71.73-.58,1.16-1.34,1.26-2.27l6.77.79c-.32,2.79-1.6,5.06-3.82,6.81-2.22,1.76-4.74,2.47-7.55,2.14l-6.74-.78c-2.81-.33-5.1-1.6-6.85-3.82-1.76-2.22-2.47-4.72-2.15-7.51l.79-6.81c.32-2.79,1.6-5.06,3.82-6.81,2.22-1.76,4.73-2.47,7.55-2.14l6.74.78c2.81.33,5.1,1.6,6.85,3.82s2.47,4.72,2.15,7.51l-6.77-.79c.11-.93-.13-1.76-.71-2.5s-1.35-1.16-2.3-1.27l-6.74-.78c-.95-.11-1.8.12-2.53.71s-1.16,1.34-1.26,2.27l-.79,6.81c-.11.93.13,1.76.71,2.5.58.73,1.35,1.16,2.3,1.27l6.74.78Z"/>
      <path class="cls-1" d="M357.42,507.78l6.77-.87,3.46,27.06-6.77.86-1.3-10.13-13.53,1.73,1.3,10.13-6.77.86-3.46-27.06,6.77-.87,1.3,10.13,13.53-1.73-1.3-10.13Z"/>
      <path class="cls-1" d="M390.72,504.25l-15.99,5.98,1.19,3.18,9.6-3.59,2.39,6.39-9.6,3.59,1.2,3.21,15.99-5.98,2.39,6.39-22.38,8.36-7.76-20.77c-.49-1.31-.44-2.61.14-3.9.59-1.29,1.54-2.18,2.85-2.67l17.6-6.58,2.39,6.39Z"/>
      <path class="cls-1" d="M413.63,481.15c.42-.62,1-1.04,1.72-1.28.72-.24,1.44-.23,2.15,0,.71.24,1.29.68,1.72,1.29l13.74,19.5-5.58,3.93-7.25-10.29.32,13.31c.01.56-.11,1.1-.36,1.61-.26.51-.61.93-1.05,1.24-1,.7-2.07.84-3.2.4l-12.43-4.78,7.25,10.29-5.58,3.93-13.74-19.5c-.43-.61-.65-1.3-.64-2.05,0-.75.25-1.43.72-2.03.47-.6,1.06-1,1.79-1.19.72-.19,1.43-.15,2.13.12l18.2,7.01-.51-19.47c-.02-.75.18-1.43.61-2.05Z"/>
      <path class="cls-1" d="M442.58,489.76l-4.71,4.93-19.73-18.84,4.71-4.93,19.73,18.84Z"/>
      <path class="cls-1" d="M435.16,466.74c-.26.39-.35.82-.26,1.28.09.47.33.84.71,1.1.39.26.81.35,1.27.25s.82-.34,1.08-.72l5.76-8.44c1.35-1.94,3.19-3.12,5.5-3.56,2.31-.43,4.44,0,6.38,1.33,1.94,1.32,3.13,3.14,3.57,5.45.44,2.31-.01,4.44-1.34,6.4l-10.57,15.49-5.63-3.84,10.57-15.49c.26-.39.35-.81.26-1.28-.09-.47-.33-.84-.71-1.1-.39-.26-.81-.35-1.27-.25s-.82.34-1.08.72l-5.76,8.44c-1.35,1.94-3.19,3.13-5.5,3.56-2.31.44-4.44,0-6.38-1.33-1.94-1.32-3.13-3.14-3.57-5.45s.01-4.44,1.34-6.4l10.57-15.49,5.63,3.84-10.57,15.49Z"/>
      <path class="cls-1" d="M449.75,422.34l6.36,2.47-3.71,9.56,19.08,7.4-2.45,6.32-19.08-7.4-3.71,9.56-6.36-2.47,9.87-25.43Z"/>
      <path class="cls-1" d="M457.64,415.21c-.07.46.04.89.33,1.27.29.38.66.61,1.12.67.46.07.88-.04,1.25-.33s.59-.66.65-1.13l1.45-10.11c.36-2.34,1.48-4.21,3.37-5.62,1.88-1.41,3.99-1.95,6.32-1.61s4.2,1.44,5.61,3.32c1.41,1.88,1.95,3.99,1.61,6.33l-2.66,18.56-6.75-.97,2.66-18.56c.07-.46-.04-.89-.33-1.27-.29-.38-.66-.61-1.12-.67-.46-.07-.88.04-1.25.33-.37.29-.59.66-.65,1.13l-1.45,10.11c-.36,2.34-1.48,4.21-3.37,5.62-1.88,1.41-3.99,1.95-6.31,1.61-2.33-.33-4.2-1.44-5.61-3.32-1.41-1.88-1.95-3.99-1.61-6.33l2.66-18.56,6.75.97-2.66,18.56Z"/>
    </g>
  </g>
</svg>